<svg width="152" height="155" viewBox="0 0 152 155" fill="none" xmlns="http://www.w3.org/2000/svg">
<path d="M129.438 26.374C142.772 39.9129 151 58.4953 151 78.9995C151 120.421 117.421 153.999 76 153.999C34.5786 153.999 1 120.421 1 78.9995C1 58.4953 9.22806 39.9129 22.5625 26.374" stroke="#D70283" stroke-width="1.875" stroke-linecap="round"/>
<path d="M35.3904 20.6675L30.6065 24.3383L26.0179 18.3584L30.8018 14.6876L31.4662 15.5534L27.6462 18.4845L28.9337 20.1625L32.6198 17.334L33.2773 18.1909L29.5912 21.0193L30.9061 22.733L34.7261 19.8018L35.3904 20.6675Z" fill="#D70283"/>
<path d="M40.1133 17.8662C38.1008 19.0602 35.9849 18.5366 34.7852 16.5145C33.5854 14.4924 34.1399 12.3843 36.1523 11.1903C37.9809 10.1053 39.8321 10.3151 40.7506 11.8631L40.8309 11.9986L39.6796 12.6817L39.5992 12.5463C39.0137 11.5594 38.0691 11.4004 36.7532 12.1811C35.2342 13.0824 34.9295 14.2443 35.8881 15.86C36.8468 17.4758 38.0069 17.7555 39.5259 16.8542C40.8417 16.0735 41.1606 15.1779 40.5694 14.1814L40.4947 14.0556L41.6461 13.3725L41.7207 13.4982C42.6449 15.0559 41.9515 16.7755 40.1133 17.8662Z" fill="#D70283"/>
<path d="M47.4874 14.099C45.3269 15.0548 43.2778 14.2882 42.3266 12.1379C41.3754 9.98769 42.1865 7.95586 44.347 7.00008C46.5281 6.03521 48.5669 6.80633 49.5181 8.95657C50.4693 11.1068 49.6685 13.1341 47.4874 14.099ZM47.0141 13.029C48.6499 12.3053 49.1053 11.1936 48.3452 9.47542C47.5852 7.75728 46.4516 7.33612 44.8158 8.05977C43.18 8.78343 42.7394 9.90095 43.4995 11.6191C44.2595 13.3372 45.3783 13.7527 47.0141 13.029Z" fill="#D70283"/>
<path d="M61.9327 9.39244L60.737 9.60817L59.3987 2.19043L65.2997 1.12578L65.4934 2.19969L60.7881 3.04861L61.2036 5.35144L65.7428 4.53247L65.9346 5.59531L61.3954 6.41428L61.9327 9.39244Z" fill="#D70283"/>
<path d="M69.9678 8.23264L68.7549 8.30489L68.3067 0.780732L72.2148 0.547928C73.9218 0.446243 75.0256 1.19193 75.1092 2.59569C75.1834 3.84223 74.4091 4.65471 72.9988 4.81761L73.0035 4.89622C73.5968 5.01866 73.8864 5.3395 74.1841 5.79511L75.5716 7.89882L74.1791 7.98178L72.8537 5.97579C72.4813 5.40067 72.1185 5.17434 71.1752 5.23054L69.7939 5.31282L69.9678 8.23264ZM69.5845 1.7978L69.7383 4.38072L72.4223 4.22084C73.433 4.16063 73.9176 3.78239 73.8615 2.83906C73.8066 1.9182 73.2792 1.57771 72.2685 1.63792L69.5845 1.7978Z" fill="#D70283"/>
<path d="M81.0147 8.17203L79.8018 8.09978L80.25 0.575618L81.4629 0.647868L81.0147 8.17203Z" fill="#D70283"/>
<path d="M91.8457 9.7133L85.9115 8.64266L87.2498 1.22492L93.184 2.29557L92.9903 3.36948L88.2518 2.51456L87.8763 4.59595L92.4487 5.42091L92.2569 6.48375L87.6845 5.65879L87.301 7.78447L92.0395 8.63939L91.8457 9.7133Z" fill="#D70283"/>
<path d="M94.8514 10.5181L93.6898 10.162L95.8993 2.9556L97.1469 3.33813L99.081 8.54373L99.6045 10.1751L99.6906 10.2015L100.036 8.88354L101.342 4.62424L102.503 4.98039L100.294 12.1868L99.0462 11.8043L97.0873 6.60282L96.573 5.05663L96.4869 5.03025L96.1474 6.29111L94.8514 10.5181Z" fill="#D70283"/>
<path d="M104.853 14.1267L101.715 12.7386L104.765 5.84546L107.903 7.23361C110.043 8.18028 110.808 10.0934 109.866 12.2231C108.924 14.3527 106.993 15.0734 104.853 14.1267ZM107.461 8.23157L105.424 7.33041L103.258 12.2276L105.295 13.1288C106.89 13.8342 107.91 13.4738 108.693 11.7042C109.476 9.93464 109.056 8.93702 107.461 8.23157Z" fill="#D70283"/>
<path d="M115.056 19.6158L110.015 16.625L113.861 10.1426L114.906 10.7626L111.617 16.3065L115.613 18.6773L115.056 19.6158Z" fill="#D70283"/>
<path d="M119.836 23.1431L118.881 22.4103L120.463 20.3486L120.845 14.4169L122.024 15.321L121.804 18.5272L121.721 19.6694L121.793 19.7242L122.866 19.3422L125.897 18.2932L127.084 19.2041L121.404 21.0992L119.836 23.1431Z" fill="#D70283"/>
<path d="M32.8555 45.6787C32.8555 45.6787 47.2165 52.1204 51.9796 54.3201C63.617 59.6944 71.6033 67.9569 75.9962 78.4807" stroke="#D70283" stroke-width="4.255" stroke-linecap="round" stroke-linejoin="round"/>
<path d="M32.8555 45.6787C53.3055 62.1162 70.3983 85.1355 75.9962 113.125" stroke="#D70283" stroke-width="4.255" stroke-linecap="round" stroke-linejoin="round"/>
<path d="M28.5781 68.5781H55.3265H28.5781Z" fill="white"/>
<path d="M28.5781 68.5781H55.3265" stroke="#D70283" stroke-width="4.255" stroke-linecap="round" stroke-linejoin="round"/>
<path d="M34.2617 87.9883H67.116H34.2617Z" fill="white"/>
<path d="M34.2617 87.9883H67.116" stroke="#D70283" stroke-width="4.255" stroke-linecap="round" stroke-linejoin="round"/>
<path d="M118.771 44.9111C118.771 44.9111 104.43 51.9095 99.6739 54.2924C77.0864 65.6103 67.112 87.9872 75.9942 113.125" stroke="#D70283" stroke-width="4.255" stroke-linecap="round" stroke-linejoin="round"/>
<path d="M118.773 44.9111C98.3232 61.3486 82.0036 85.1349 75.9961 113.125" stroke="#D70283" stroke-width="4.255" stroke-linecap="round" stroke-linejoin="round"/>
<path d="M123.418 68.5527H96.332H123.418Z" fill="white"/>
<path d="M123.418 68.5527H96.332" stroke="#D70283" stroke-width="4.255" stroke-linecap="round" stroke-linejoin="round"/>
<path d="M117.397 87.959H84.543H117.397Z" fill="white"/>
<path d="M117.397 87.959H84.543" stroke="#D70283" stroke-width="4.255" stroke-linecap="round" stroke-linejoin="round"/>
<path d="M32.8571 45.6781C29.5 52.9504 28.0359 60.9532 28.6007 68.943C29.1655 76.9328 31.7409 84.6501 36.0876 91.3777C40.4343 98.1054 46.4112 103.625 53.4628 107.424C60.5145 111.222 68.4119 113.177 76.4213 113.105C84.4307 113.034 92.292 110.939 99.2747 107.015C106.257 103.091 112.135 97.4654 116.361 90.6612C120.587 83.857 123.024 76.0949 123.446 68.0963C123.868 60.0978 122.261 52.1223 118.775 44.9111" stroke="#D70283" stroke-width="4.255" stroke-linecap="round" stroke-linejoin="round"/>
</svg>
