<svg width="151" height="150" viewBox="0 0 151 150" fill="none" xmlns="http://www.w3.org/2000/svg">
<path d="M65.4619 57.0028V59.5412H62.3158C61.8513 59.5412 61.4057 59.7257 61.0773 60.0542C60.7488 60.3827 60.5643 60.8282 60.5643 61.2927C60.5643 61.7573 60.7488 62.2028 61.0773 62.5312C61.4057 62.8597 61.8513 63.0442 62.3158 63.0442H65.4619V66.0507C60.8335 67.6272 56.8134 70.6108 53.9641 74.5843C51.1148 78.5579 49.5786 83.3226 49.5705 88.2122C49.5583 91.4066 50.2058 94.5692 51.4724 97.5019C52.739 100.435 54.5974 103.074 56.9312 105.255C57.2562 105.562 57.6862 105.733 58.1331 105.733H87.8668C88.3138 105.733 88.7437 105.562 89.0687 105.255C91.4026 103.074 93.261 100.435 94.5276 97.5019C95.7941 94.5692 96.4416 91.4066 96.4295 88.2122C96.4214 83.3226 94.8852 78.5578 92.0359 74.5842C89.1866 70.6106 85.1666 67.6269 80.5381 66.0504V64.5415H84.53C87.0952 66.6747 97.2802 74.8397 102.956 74.8397C106.149 74.8365 109.211 73.5656 111.468 71.3062C113.726 69.0468 114.993 65.9837 114.993 62.7899C114.993 59.5962 113.726 56.5331 111.468 54.2737C109.211 52.0143 106.149 50.7434 102.956 50.7402C97.2802 50.7402 87.0952 58.9052 84.53 61.0384H80.5381V57.0029C80.538 56.5384 80.3534 56.093 80.0249 55.7645C79.6965 55.4361 79.2511 55.2515 78.7866 55.2514H67.2134C66.7489 55.2515 66.3035 55.4361 65.9751 55.7645C65.6466 56.0929 65.462 56.5384 65.4619 57.0028ZM102.955 54.2433C105.22 54.2459 107.392 55.1476 108.992 56.7501C110.593 58.3526 111.492 60.525 111.492 62.7899C111.492 65.0549 110.593 67.2273 108.992 68.8298C107.392 70.4323 105.22 71.334 102.955 71.3366C99.6896 71.3366 92.6071 66.5382 87.9216 62.7899C92.6048 59.0406 99.6862 54.2433 102.955 54.2433ZM92.9264 88.2122C92.9365 90.8139 92.4317 93.3919 91.4412 95.7977C90.4508 98.2035 88.9942 100.39 87.1553 102.23H58.8447C57.0058 100.39 55.5492 98.2035 54.5587 95.7977C53.5682 93.3919 53.0635 90.8139 53.0735 88.2122C53.0735 82.9274 55.1729 77.859 58.9098 74.1221C62.6468 70.3851 67.7151 68.2857 73 68.2857C78.2848 68.2857 83.3532 70.3851 87.0901 74.1221C90.827 77.859 92.9264 82.9274 92.9264 88.2122ZM68.965 58.7544H77.035V65.1558C74.368 64.659 71.6321 64.659 68.965 65.1558L68.965 58.7544Z" fill="#D70283"/>
<path d="M42.8267 61.4759C42.8383 61.9325 43.0278 62.3665 43.3548 62.6853C43.6817 63.0042 44.1203 63.1828 44.5771 63.1829H44.6227L50.1988 63.0427C50.4288 63.0368 50.6554 62.9857 50.8657 62.8923C51.076 62.7989 51.2658 62.665 51.4243 62.4982C51.5828 62.3314 51.7069 62.1351 51.7896 61.9203C51.8722 61.7056 51.9117 61.4767 51.9059 61.2467C51.9 61.0167 51.8489 60.7901 51.7555 60.5798C51.6621 60.3695 51.5282 60.1797 51.3614 60.0212C51.1946 59.8627 50.9983 59.7386 50.7835 59.6559C50.5688 59.5733 50.3399 59.5338 50.1099 59.5396L44.5338 59.6799C44.0694 59.692 43.6287 59.8879 43.3086 60.2247C42.9886 60.5614 42.8152 61.0114 42.8267 61.4759Z" fill="#D70283"/>
<path d="M54.0787 57.817C54.4941 58.0239 54.9746 58.0575 55.4148 57.9104C55.855 57.7632 56.2187 57.4475 56.4263 57.0324C56.6338 56.6173 56.6682 56.1368 56.5218 55.6964C56.3754 55.256 56.0602 54.8917 55.6455 54.6835L50.0625 51.892C49.6469 51.6842 49.1659 51.65 48.7251 51.7969C48.2844 51.9438 47.9201 52.2598 47.7123 52.6754C47.5045 53.0909 47.4703 53.572 47.6172 54.0127C47.7642 54.4534 48.0801 54.8178 48.4957 55.0256L54.0787 57.817Z" fill="#D70283"/>
<path d="M49.2804 70.9984C49.5451 70.9986 49.8063 70.9386 50.0444 70.8228L55.6274 68.11C55.8343 68.0095 56.0195 67.8692 56.1722 67.6972C56.325 67.5252 56.4423 67.3247 56.5176 67.1074C56.5929 66.89 56.6246 66.6599 56.611 66.4302C56.5974 66.2006 56.5386 65.9759 56.4382 65.7689C56.3377 65.562 56.1974 65.3768 56.0254 65.2241C55.8534 65.0713 55.6529 64.954 55.4355 64.8787C55.2181 64.8034 54.9881 64.7717 54.7584 64.7853C54.5288 64.7989 54.304 64.8577 54.0971 64.9582L48.5141 67.671C48.1574 67.8441 47.87 68.1331 47.6989 68.4907C47.5278 68.8484 47.483 69.2535 47.572 69.6399C47.661 70.0262 47.8784 70.371 48.1887 70.6178C48.4991 70.8645 48.8839 70.9987 49.2804 70.9984Z" fill="#D70283"/>
<path d="M49.6055 134.164L52.9287 135.358L54.5249 130.908L59.2377 132.599L60.1964 129.926L55.4836 128.235L56.2216 126.178L61.2333 127.976L62.1919 125.303L53.8558 122.312L49.6055 134.164Z" fill="#D70283"/>
<path d="M69.1311 126.32C67.6549 126.142 66.168 126.07 64.6815 126.102L63.2949 138.449L66.7672 138.839L67.2894 134.179L67.9212 134.25C69.0912 134.381 69.5587 134.734 69.7799 136.282C69.8918 137.291 70.1077 138.285 70.4242 139.249L73.9888 139.649C73.8018 139.14 73.5806 137.253 73.2978 135.925C73.2494 135.448 73.0991 134.988 72.8568 134.575C72.6146 134.161 72.2862 133.805 71.894 133.53L71.902 133.456C72.5585 133.31 73.1551 132.968 73.6132 132.475C74.0713 131.983 74.3692 131.363 74.4677 130.698C74.5542 130.171 74.509 129.631 74.3361 129.127C74.1632 128.622 73.868 128.168 73.4768 127.805C72.2152 126.875 70.6978 126.357 69.1311 126.32ZM70.967 130.568C70.8598 131.515 69.9806 131.981 68.6065 131.826L67.5677 131.709L67.8881 128.85C68.338 128.837 68.7882 128.862 69.2337 128.926C70.4219 129.059 71.073 129.621 70.967 130.568Z" fill="#D70283"/>
<path d="M86.2942 125.914L77.3906 126.974L78.8794 139.476L88.0597 138.383L87.7246 135.564L82.0497 136.24L81.7951 134.107L86.878 133.501L86.5418 130.682L81.4588 131.288L81.2323 129.376L86.6293 128.734L86.2942 125.914Z" fill="#D70283"/>
<path d="M97.3572 122.265L88.916 125.283L93.1559 137.136L101.861 134.023L100.903 131.349L95.5228 133.275L94.8 131.252L99.619 129.529L98.6615 126.856L93.8436 128.579L93.1967 126.768L98.3135 124.937L97.3572 122.265Z" fill="#D70283"/>
<path d="M23.0035 36.7002L18.3164 44.2166L29.0042 50.8817L30.8737 47.8843L26.8615 45.3819L29.5121 41.1339L27.1009 39.6299L24.4514 43.8791L22.596 42.7231L25.4136 38.203L23.0035 36.7002Z" fill="#D70283"/>
<path d="M36.2134 27.7374C35.8564 27.3406 35.4067 27.0383 34.9046 26.8574C34.4024 26.6765 33.8632 26.6227 33.3352 26.7008C31.8207 27.1037 30.4672 27.9638 29.4593 29.1639C28.3964 30.2042 27.4094 31.3192 26.5059 32.5004L35.2737 41.3037L37.7494 38.8383L34.4401 35.5154L34.8894 35.0673C35.7241 34.2371 36.292 34.0923 37.6387 34.8883C38.4961 35.4311 39.4071 35.8843 40.3572 36.2407L42.899 33.7091C42.3836 33.5369 40.7746 32.5289 39.5602 31.9188C39.158 31.6586 38.7044 31.488 38.2304 31.4188C37.7564 31.3495 37.273 31.3832 36.8131 31.5175L36.7607 31.4639C37.057 30.8602 37.1633 30.1809 37.0655 29.5156C36.9678 28.8503 36.6707 28.2303 36.2134 27.7374ZM33.4276 33.017L32.6864 33.7548L30.6555 31.7159C30.9257 31.356 31.2272 31.0206 31.5563 30.7136C32.4036 29.8697 33.2497 29.7135 33.9213 30.3886C34.5941 31.0637 34.4071 32.0409 33.4276 33.017Z" fill="#D70283"/>
<path d="M40.959 19.9943L43.8052 32.8867L47.0255 31.0291L46.1896 27.9742L49.3608 26.144L51.7008 28.3311L55.0978 26.3698L45.1325 17.5859L40.959 19.9943ZM47.6025 24.1827L45.3378 25.4895L44.754 23.2819C44.5681 22.5486 44.2727 21.6626 44.0857 20.9283L44.1188 20.91C44.6764 21.4289 45.3606 22.0914 45.9091 22.5931L47.6025 24.1827Z" fill="#D70283"/>
<path d="M60.9544 14.4713C62.1049 14.1224 63.3159 14.0198 64.5087 14.1703L64.5247 11.3047C63.1168 11.1532 61.6928 11.2866 60.3375 11.6969C56.0008 12.843 53.2458 15.948 54.3588 20.1581C54.553 20.9478 54.9096 21.6883 55.406 22.3325C55.9023 22.9767 56.5274 23.5103 57.2415 23.8995C58.7353 24.7228 60.732 24.8904 63.4061 24.1845C65.0003 23.7341 66.5198 23.0521 67.916 22.1605L66.1588 15.5124L60.9373 16.8922L61.6294 19.5115L63.5087 19.0155L64.0298 20.9848C63.6419 21.1931 63.2276 21.3481 62.7983 21.4455C60.4492 22.0658 58.4457 21.0681 57.8732 18.9003C57.2575 16.5695 58.8231 15.0346 60.9544 14.4713Z" fill="#D70283"/>
<path d="M80.8819 13.7862C80.918 13.2539 80.8216 12.721 80.6013 12.235C80.381 11.7491 80.0437 11.3253 79.6196 11.0016C78.2757 10.1969 76.7164 9.82577 75.1541 9.93883C73.6683 9.90232 72.1817 9.97168 70.7057 10.1464L70.5039 22.5644L73.9956 22.6203L74.072 17.9336L74.7071 17.9438C75.8828 17.9632 76.3822 18.27 76.7494 19.7889C76.958 20.7819 77.2679 21.7509 77.6742 22.6807L81.2593 22.7389C81.0244 22.2496 80.6253 20.3932 80.2159 19.0978C80.1224 18.6283 79.9288 18.1845 79.6485 17.7965C79.3681 17.4084 79.0074 17.0853 78.591 16.8491L78.5922 16.775C79.2311 16.5666 79.792 16.1694 80.2007 15.6359C80.6095 15.1023 80.847 14.4575 80.8819 13.7862ZM75.1575 15.4671L74.1119 15.45L74.1586 12.5752C74.6047 12.5178 75.0549 12.4999 75.5042 12.5216C76.6992 12.541 77.4005 13.0382 77.3857 13.9904C77.3697 14.9425 76.5396 15.4899 75.1575 15.4671Z" fill="#D70283"/>
<path d="M91.2797 21.8405L91.3937 25.0414L95.1841 26.0517L94.3289 12.7944L89.673 11.5537L82.5859 22.6934L86.1779 23.6513L87.7424 20.8974L91.2797 21.8405ZM90.039 16.5609C90.4256 15.9098 90.8418 15.0739 91.2272 14.4228L91.2637 14.4319C91.2922 15.1936 91.3093 16.1458 91.3436 16.8893L91.4211 19.211L88.8942 18.537L90.039 16.5609Z" fill="#D70283"/>
<path d="M107.165 18.2936L103.356 16.0381L96.9434 26.8699L99.7554 28.5348L101.488 25.6099C102.458 23.9713 103.375 22.3862 104.264 20.6997L104.329 20.7373C104.106 22.54 103.975 24.3527 103.935 26.1686L103.774 30.9135L107.1 32.8828L113.513 22.051L110.701 20.3861L109.026 23.2152C108.131 24.6717 107.33 26.1838 106.628 27.7423L106.58 27.7138C106.878 25.9851 107.05 24.2369 107.093 22.4832L107.165 18.2936Z" fill="#D70283"/>
<path d="M113.143 30.0071C110.73 32.3778 110.235 36.0599 113.81 39.6986C114.639 40.5991 115.639 41.3261 116.751 41.8378L118.304 39.5527C117.502 39.1523 116.774 38.6186 116.151 37.9745C114.331 36.1226 114.376 34.0084 115.922 32.4895C117.708 30.7346 119.83 31.2683 121.31 32.7746C121.974 33.4412 122.501 34.2315 122.862 35.1009L125.318 33.7085C124.852 32.5653 124.144 31.5361 123.244 30.6912C120.35 27.7458 116.26 26.943 113.143 30.0071Z" fill="#D70283"/>
<path d="M130.87 46.7326L133.302 45.266L128.668 37.585L117.883 44.0948L122.663 52.014L125.096 50.5462L122.14 45.6501L123.98 44.5397L126.626 48.9232L129.059 47.4566L126.413 43.0719L128.06 42.077L130.87 46.7326Z" fill="#D70283"/>
<path d="M130.979 56.492C130.534 56.6248 130.16 56.9289 129.939 57.3376C129.718 57.7463 129.668 58.2259 129.801 58.6711C131.359 63.8831 132.153 69.2936 132.157 74.7336C132.137 83.6304 130.029 92.3983 126.004 100.333C121.98 108.267 116.149 115.146 108.982 120.418C108.797 120.554 108.64 120.725 108.521 120.922C108.402 121.119 108.323 121.337 108.288 121.564C108.253 121.792 108.263 122.024 108.318 122.247C108.373 122.471 108.471 122.681 108.607 122.866C108.743 123.052 108.915 123.208 109.111 123.328C109.308 123.447 109.526 123.526 109.754 123.561C109.981 123.596 110.213 123.585 110.436 123.531C110.66 123.476 110.87 123.378 111.056 123.241C118.665 117.644 124.855 110.339 129.128 101.915C133.402 93.4898 135.639 84.1801 135.66 74.7336C135.656 68.9546 134.813 63.2068 133.158 57.6699C133.025 57.2248 132.721 56.8506 132.313 56.6297C131.904 56.4088 131.424 56.3592 130.979 56.492Z" fill="#D70283"/>
<path d="M17.8905 57.6681C16.2355 63.205 15.3928 68.9528 15.3887 74.7318C15.4099 84.1783 17.6471 93.488 21.9203 101.913C26.1936 110.337 32.3838 117.642 39.9933 123.24C40.3677 123.515 40.836 123.63 41.2951 123.559C41.7542 123.489 42.1666 123.239 42.4415 122.864C42.7164 122.49 42.8314 122.022 42.761 121.563C42.6906 121.104 42.4408 120.691 42.0664 120.416C34.8995 115.145 29.0693 108.265 25.0443 100.331C21.0194 92.3965 18.9121 83.6286 18.8917 74.7318C18.8958 69.2919 19.6893 63.8813 21.2476 58.6693C21.3792 58.2245 21.3289 57.7456 21.1079 57.3378C20.8868 56.93 20.5131 56.6265 20.0685 56.494C19.624 56.3614 19.1451 56.4106 18.7367 56.6307C18.3284 56.8508 18.0241 57.2239 17.8905 57.6681Z" fill="#D70283"/>
</svg>
