<svg width="150" height="150" viewBox="0 0 150 150" fill="none" xmlns="http://www.w3.org/2000/svg">
<path d="M53.5831 122.311L61.9188 125.3L60.9598 127.973L55.9481 126.176L55.2104 128.233L59.9233 129.924L58.9643 132.597L54.2513 130.906L52.6561 135.356L49.332 134.164L53.5831 122.311Z" fill="#D70283"/>
<path d="M64.41 126.102C65.8965 126.068 67.3834 126.141 68.8596 126.319C70.4262 126.356 71.9436 126.874 73.2053 127.804C73.5964 128.167 73.8916 128.621 74.0646 129.126C74.2375 129.631 74.2827 130.17 74.1962 130.697C74.0977 131.362 73.7998 131.982 73.3417 132.474C72.8836 132.967 72.287 133.309 71.6305 133.455L71.6225 133.529C72.0146 133.804 72.3429 134.16 72.5852 134.573C72.8274 134.987 72.9778 135.447 73.0263 135.924C73.3091 137.253 73.5303 139.139 73.7173 139.649L70.1527 139.248C69.8363 138.284 69.6204 137.289 69.5084 136.281C69.2872 134.733 68.8196 134.38 67.6497 134.249L67.018 134.178L66.4957 138.838L63.0234 138.448L64.41 126.102ZM67.2962 131.709L68.335 131.825C69.7091 131.979 70.5883 131.514 70.6955 130.567C70.8015 129.621 70.1504 129.058 68.9622 128.925C68.5167 128.861 68.0665 128.835 67.6166 128.849L67.2962 131.709Z" fill="#D70283"/>
<path d="M86.6046 133.501L81.5222 134.106L81.7765 136.239L87.4519 135.563L87.7871 138.382L78.6064 139.476L77.1172 126.975L86.0208 125.914L86.356 128.733L80.9589 129.376L81.1858 131.287L86.2682 130.681L86.6046 133.501Z" fill="#D70283"/>
<path d="M99.3436 129.527L94.5246 131.251L95.2475 133.273L100.629 131.348L101.585 134.022L92.8803 137.135L88.6406 125.282L97.0824 122.263L98.038 124.936L92.9214 126.766L93.5691 128.578L98.3869 126.854L99.3436 129.527Z" fill="#D70283"/>
<path d="M23.9414 35.3276C24.8032 34.0469 25.7616 32.8338 26.8082 31.6991C27.6925 30.5634 28.9091 29.7319 30.2884 29.3204C30.8776 29.1968 31.4879 29.2164 32.068 29.3773C32.6481 29.5382 33.1813 29.8358 33.6227 30.2452C34.0634 30.6062 34.4219 31.0573 34.6742 31.5681C34.9265 32.0789 35.0668 32.6377 35.0857 33.2071C34.9692 34.8453 34.2545 36.3835 33.0776 37.5289C32.8153 37.8214 32.5633 38.0472 32.4003 38.2017L35.535 41.0041L33.2065 43.6097L23.9414 35.3276ZM30.4081 36.4211C30.644 36.2255 30.8623 36.0095 31.0604 35.7757C31.9692 34.7585 32.1574 33.6228 31.3067 32.8633C30.6248 32.2526 29.7182 32.3701 28.7832 33.4147C28.5182 33.6978 28.2786 34.0036 28.0671 34.3286L30.4081 36.4211Z" fill="#D70283"/>
<path d="M45.9656 25.5413L41.7772 28.4856L43.0133 30.2434L47.6908 26.9559L49.3238 29.2793L41.7566 34.5977L34.5156 24.2938L41.8536 19.1367L43.4865 21.4607L39.0381 24.5869L40.1442 26.1616L44.3326 23.2179L45.9656 25.5413Z" fill="#D70283"/>
<path d="M50.5386 24.7402C51.7935 24.8294 53.0527 24.6424 54.2275 24.1922C55.3188 23.7498 55.7327 23.1791 55.4945 22.5901C55.2903 22.0878 54.6199 21.9766 53.0382 22.1539C50.8226 22.4071 48.7632 22.0519 47.941 20.0255C47.0846 17.9131 48.3584 15.5817 51.3893 14.3536C52.5979 13.8251 53.9041 13.5566 55.2231 13.5656L55.5173 16.4307C54.4504 16.4057 53.3893 16.5957 52.3974 16.9894C51.4271 17.3829 50.9994 17.9194 51.2035 18.4211C51.4555 19.0449 52.2845 18.9508 54.0053 18.8179C56.5687 18.6258 58.0853 19.2815 58.8014 21.0478C59.594 23.0052 58.7832 25.4312 55.0601 26.9404C53.7554 27.4746 52.3526 27.727 50.9435 27.681L50.5386 24.7402Z" fill="#D70283"/>
<path d="M63.8692 13.9493L60.3616 14.4972L59.918 11.655L70.4944 10.001L70.9391 12.8438L67.3574 13.4037L68.8592 23.0023L65.3698 23.5479L63.8692 13.9493Z" fill="#D70283"/>
<path d="M78.7281 10.1215L78.4043 22.7066L74.875 22.6159L75.1989 10.0303L78.7281 10.1215Z" fill="#D70283"/>
<path d="M91.8153 24.6429C90.6049 24.8227 89.3708 24.7607 88.1845 24.4605C83.2036 23.3709 81.6049 20.0195 82.3267 16.7171C83.2606 12.4478 87.1206 10.8833 91.1527 11.7653C92.368 11.9806 93.5226 12.4549 94.5383 13.1559L93.2441 15.6641C92.467 15.1342 91.5939 14.7614 90.6738 14.5665C88.6121 14.1155 86.5447 14.8294 86.0088 17.2742C85.5458 19.3906 86.6645 21.1838 89.2005 21.7385C90.0743 21.9368 90.9755 21.9852 91.8655 21.8816L91.8153 24.6429Z" fill="#D70283"/>
<path d="M102.389 15.9829L97.4169 27.5474L94.1738 26.1534L99.1456 14.5889L102.389 15.9829Z" fill="#D70283"/>
<path d="M107.369 18.4434C108.685 19.1235 109.949 19.8977 111.153 20.7599C112.852 21.7713 114.211 23.2668 115.055 25.0549C115.425 25.9258 115.556 26.8797 115.435 27.8182C115.313 28.7566 114.943 29.6456 114.363 30.3933C113.847 31.228 113.136 31.9251 112.291 32.4252C111.447 32.9252 110.493 33.2133 109.513 33.2646C107.209 33.1565 104.997 32.3218 103.196 30.8802C102.161 30.1799 101.182 29.4002 100.268 28.5483L107.369 18.4434ZM104.606 28.5152C104.811 28.6979 105.029 28.866 105.258 29.0181C107.347 30.5313 109.589 30.6231 111.168 28.3755C112.608 26.3269 111.757 24.4505 109.892 23.1397C109.559 22.8953 109.203 22.6834 108.829 22.5069L104.606 28.5152Z" fill="#D70283"/>
<path d="M121.422 40.9044L118.096 37.013L116.464 38.4088L120.176 42.754L118.018 44.5984L112.012 37.569L121.582 29.3906L127.407 36.2069L125.248 38.0513L121.718 33.9188L120.255 35.1686L123.579 39.0599L121.422 40.9044Z" fill="#D70283"/>
<path d="M107.026 94.5941L98.4525 57.8797C98.3109 57.2741 97.9687 56.7341 97.4814 56.3477C96.9941 55.9612 96.3904 55.7509 95.7684 55.751H84.2913C84.1299 55.753 83.9691 55.7692 83.8105 55.7994C84.1268 56.667 84.2894 57.583 84.2913 58.5063V61.2626H93.5822L101.658 95.8482C101.799 96.4534 102.141 96.9931 102.628 97.3796C103.114 97.7662 103.717 97.977 104.339 97.9778C104.551 97.9774 104.762 97.9531 104.969 97.9052C105.68 97.7387 106.297 97.2964 106.683 96.6755C107.068 96.0546 107.192 95.3059 107.026 94.5941Z" stroke="#D70283" stroke-width="3.50305" stroke-linecap="round" stroke-linejoin="round"/>
<path d="M84.3904 67.1084H68.2086C66.7731 67.1084 65.6094 68.2721 65.6094 69.7077C65.6094 71.1432 66.7731 72.3069 68.2086 72.3069H84.3904C85.8259 72.3069 86.9897 71.1432 86.9897 69.7077C86.9897 68.2721 85.8259 67.1084 84.3904 67.1084Z" stroke="#D70283" stroke-width="3.50305" stroke-linecap="round" stroke-linejoin="round"/>
<path d="M85.6749 71.955C86.1735 71.6727 86.5645 71.2331 86.7867 70.705C87.0089 70.1768 87.0498 69.5899 86.903 69.036C86.7561 68.4822 86.4299 67.9926 85.9752 67.6439C85.5205 67.2952 84.9631 67.107 84.3901 67.1088H84.2928V58.8016C84.3215 56.7532 83.5817 54.7684 82.2192 53.2387C80.8567 51.7089 78.9704 50.7451 76.9324 50.5375C75.3529 50.4127 73.772 50.7605 72.3907 51.5367C71.0094 52.3128 69.8901 53.4821 69.1752 54.8961H64.0224V60.2836H68.3088C68.3087 60.3038 68.3058 60.3233 68.3058 60.3437V67.1088H68.2084C67.6354 67.107 67.078 67.2952 66.6234 67.6439C66.1687 67.9926 65.8424 68.4822 65.6956 69.036C65.5488 69.5899 65.5896 70.1768 65.8118 70.7049C66.034 71.2331 66.425 71.6727 66.9236 71.955C65.5803 73.2234 64.5105 74.7529 63.7797 76.4496C63.0489 78.1464 62.6726 79.9745 62.6738 81.822V101.584C62.6738 102.658 62.8854 103.721 63.2964 104.714C63.7074 105.706 64.3098 106.608 65.0693 107.367C65.8288 108.127 66.7304 108.729 67.7227 109.14C68.715 109.551 69.7785 109.763 70.8526 109.763H81.7459C83.915 109.763 85.9953 108.901 87.5292 107.367C89.063 105.833 89.9247 103.753 89.9247 101.584V81.822C89.926 79.9746 89.5497 78.1464 88.8189 76.4496C88.088 74.7529 87.0182 73.2234 85.6749 71.955Z" stroke="#D70283" stroke-width="3.50305" stroke-linecap="round" stroke-linejoin="round"/>
<path d="M56.7327 56.4717L43.4199 56.8068L56.7327 56.4717Z" fill="white"/>
<path d="M56.7327 56.4717L43.4199 56.8068" stroke="#D70283" stroke-width="3.50305" stroke-linecap="round" stroke-linejoin="round"/>
<path d="M56.728 51.0323L43.4082 44.373L56.728 51.0323Z" fill="white"/>
<path d="M56.728 51.0323L43.4082 44.373" stroke="#D70283" stroke-width="3.50305" stroke-linecap="round" stroke-linejoin="round"/>
<path d="M43.4082 68.9915L56.728 62.3311L43.4082 68.9915Z" fill="white"/>
<path d="M43.4082 68.9915L56.728 62.3311" stroke="#D70283" stroke-width="3.50305" stroke-linecap="round" stroke-linejoin="round"/>
<path d="M109.748 121.83C121.243 113.419 129.264 101.094 132.299 87.1772C135.333 73.2606 133.171 58.7147 126.22 46.2822" stroke="#D70283" stroke-width="3.50305" stroke-linecap="round" stroke-linejoin="round"/>
<path d="M24.2866 46.2822C17.336 58.7147 15.174 73.2606 18.2084 87.1772C21.2427 101.094 29.2637 113.419 40.7589 121.83" stroke="#D70283" stroke-width="3.50305" stroke-linecap="round" stroke-linejoin="round"/>
</svg>
