<svg width="152" height="155" viewBox="0 0 152 155" fill="none" xmlns="http://www.w3.org/2000/svg">
<path d="M128.434 25.3757C142.358 38.9922 151 57.9872 151 79.0007C151 120.422 117.421 154.001 76 154.001C34.5786 154.001 1 120.422 1 79.0007C1 57.6451 9.92567 38.3741 24.25 24.7148" stroke="#D70283" stroke-width="1.875" stroke-linecap="round"/>
<path d="M33.1096 22.5595C31.2531 23.984 29.09 23.7152 27.6587 21.8499C26.2273 19.9845 26.5276 17.8256 28.384 16.4011C30.0709 15.1067 31.9339 15.0952 33.0297 16.5232L33.1255 16.6482L32.0634 17.4632L31.9676 17.3382C31.269 16.4278 30.3122 16.3821 29.0984 17.3135C27.6971 18.3887 27.5324 19.5786 28.6761 21.0691C29.8199 22.5596 31.005 22.6996 32.4062 21.6244C33.6201 20.693 33.8304 19.7659 33.125 18.8466L33.0359 18.7305L34.098 17.9156L34.1871 18.0316C35.2897 19.4686 34.8053 21.2582 33.1096 22.5595Z" fill="#D70283"/>
<path d="M40.7148 17.5188C38.6688 18.7001 36.5496 18.1569 35.3739 16.1207C34.1983 14.0844 34.7876 11.9776 36.8335 10.7963C38.899 9.6038 41.0085 10.1526 42.1841 12.1888C43.3598 14.2251 42.7803 16.3263 40.7148 17.5188ZM40.1298 16.5056C41.6789 15.6112 42.0128 14.4571 41.0735 12.8301C40.1341 11.203 38.962 10.9054 37.4129 11.7998C35.8638 12.6942 35.5452 13.8524 36.4846 15.4794C37.424 17.1065 38.5807 17.4 40.1298 16.5056Z" fill="#D70283"/>
<path d="M49.556 13.1028L48.4438 13.5635L45.977 7.60791L43.233 8.74447L42.8154 7.73629L49.405 5.0068L49.8226 6.01499L47.0891 7.14725L49.556 13.1028Z" fill="#D70283"/>
<path d="M58.3847 10.2143L57.2219 10.5259L55.5535 4.2993L52.6847 5.06799L52.4023 4.01393L59.2918 2.1679L59.5742 3.22197L56.7163 3.98775L58.3847 10.2143Z" fill="#D70283"/>
<path d="M66.9273 8.69502C64.585 9.00339 62.8349 7.69059 62.528 5.35946C62.2211 3.02832 63.5718 1.3073 65.9141 0.998933C68.2787 0.687628 70.0176 2.0019 70.3245 4.33303C70.6314 6.66417 69.2919 8.38372 66.9273 8.69502ZM66.7746 7.53503C68.548 7.30155 69.2982 6.36311 69.053 4.50043C68.8077 2.63775 67.8388 1.91429 66.0653 2.14777C64.2919 2.38125 63.5543 3.32938 63.7995 5.19206C64.0448 7.05473 65.0011 7.76851 66.7746 7.53503Z" fill="#D70283"/>
<path d="M73.9495 8H72.7345V0.4625H74.0395L77.4145 4.8725L78.3932 6.27875H78.4832L78.427 4.9175V0.4625H79.642V8H78.337L74.9395 3.60125L73.9945 2.27375H73.9045L73.9495 3.57875V8Z" fill="#D70283"/>
<path d="M94.6556 10.6095C92.4822 10.0272 91.6301 8.77394 92.0406 7.24174L92.0581 7.17654L93.2317 7.49101L93.1851 7.66488C92.9522 8.53421 93.3464 9.10573 94.9438 9.53375C96.3348 9.90645 96.9053 9.73321 97.0887 9.04861C97.2576 8.41834 96.9522 8.08028 96.0751 7.65891L94.3716 6.88799C93.2019 6.34164 92.484 5.54363 92.8043 4.3483C93.0867 3.29423 94.2414 2.46224 96.5017 3.06787C98.6315 3.63857 99.3133 4.96265 98.9319 6.38618L98.9144 6.45138L97.7517 6.13982L97.7895 5.99856C98.0283 5.10749 97.6152 4.51928 96.1047 4.11456C94.779 3.75933 94.17 3.94556 93.9953 4.59756C93.8265 5.22783 94.1406 5.5333 94.9496 5.94805L96.6393 6.72693C98.0256 7.3779 98.5652 8.23294 98.2798 9.29787C97.9828 10.4063 96.8072 11.1861 94.6556 10.6095Z" fill="#D70283"/>
<path d="M103.298 13.5785C101.116 12.6744 100.257 10.6624 101.156 8.49018C102.056 6.3179 104.086 5.50279 106.269 6.40688C108.472 7.31958 109.321 9.32723 108.422 11.4995C107.522 13.6718 105.502 14.4912 103.298 13.5785ZM103.746 12.4976C105.399 13.1821 106.518 12.7444 107.237 11.0087C107.956 9.27297 107.478 8.16195 105.826 7.47742C104.173 6.7929 103.06 7.24523 102.341 8.98097C101.622 10.7167 102.094 11.813 103.746 12.4976Z" fill="#D70283"/>
<path d="M110.214 16.7706L109.162 16.1631L112.931 9.63541L118.124 12.6335L117.578 13.5786L113.437 11.188L112.267 13.2145L116.262 15.5207L115.722 16.456L111.727 14.1498L110.214 16.7706Z" fill="#D70283"/>
<path d="M119.847 23.1514L118.892 22.4186L122.816 17.3044L120.46 15.4964L121.124 14.6307L126.783 18.9727L126.118 19.8384L123.771 18.0372L119.847 23.1514Z" fill="#D70283"/>
<g clip-path="url(#clip0_2172_295)">
<path d="M96.9604 61.8889C96.7841 61.8889 96.608 61.8946 96.4321 61.9002C96.4339 61.7877 96.438 61.6751 96.438 61.5627C96.438 50.2934 87.2696 41.125 76.0001 41.125C64.7307 41.125 55.5623 50.2934 55.5623 61.5629C55.5623 61.6753 55.5663 61.7877 55.5682 61.9003C55.3923 61.8946 55.2162 61.8891 55.0399 61.8891C46.007 61.8891 38.6582 69.2379 38.6582 78.2708C38.6582 82.4413 40.2265 86.4148 43.074 89.4591C45.6574 92.2209 49.0712 93.9849 52.78 94.4969C55.6878 100.23 61.6405 104.168 68.4965 104.168C71.4103 104.168 73.7809 106.538 73.7809 109.452V116.875H78.2194V109.452C78.2194 106.538 80.59 104.168 83.5038 104.168C90.3597 104.168 96.3124 100.229 99.2203 94.4966C102.929 93.9847 106.343 92.2207 108.926 89.4588C111.774 86.4145 113.342 82.441 113.342 78.2705C113.342 69.2377 105.993 61.8889 96.9604 61.8889ZM60.0008 61.5629C60.0008 52.7408 67.1781 45.5635 76.0001 45.5635C84.8222 45.5635 91.9995 52.7408 91.9995 61.5629C91.9995 61.9341 91.9865 62.3062 91.9612 62.6766C90.8122 63.045 89.7051 63.5389 88.6624 64.1505C85.6556 60.4899 81.0961 58.1508 76.0003 58.1508C70.9045 58.1508 66.345 60.4899 63.3382 64.1505C62.2955 63.5389 61.1884 63.0449 60.0394 62.6766C60.0138 62.3062 60.0008 61.9341 60.0008 61.5629ZM68.4965 99.7292C61.3548 99.7292 55.5222 94.0167 55.3291 86.9206C56.6559 87.6982 58.1996 88.1443 59.8454 88.1443H62.382C68.6673 88.1443 73.7808 93.2577 73.7808 99.543V101.294C72.2585 100.304 70.4435 99.7292 68.4965 99.7292ZM83.5038 99.7292C81.5568 99.7292 79.7418 100.304 78.2194 101.294V99.543C78.2194 93.2579 83.3328 88.1443 89.6181 88.1443H92.1547C93.8005 88.1443 95.3444 87.6981 96.671 86.9206C96.4781 94.0167 90.6455 99.7292 83.5038 99.7292ZM100.858 89.5575C101.026 88.5821 101.115 87.5797 101.115 86.5569V79.1845H96.6761C96.6761 81.6777 94.6478 83.706 92.1547 83.706H89.6181C83.8335 83.706 78.7641 86.824 76.0001 91.4671C73.2362 86.824 68.1668 83.706 62.3822 83.706H59.8456C57.3525 83.706 55.3242 81.6777 55.3242 79.1845H50.8858V86.5569C50.8858 87.5797 50.9744 88.5821 51.1426 89.5575C46.4504 87.9292 43.0967 83.4478 43.0967 78.2705C43.0967 71.6849 48.4544 66.3273 55.0399 66.3273C57.1739 66.3273 59.2076 66.8769 61.0117 67.9251C60.1168 69.9473 59.6185 72.1826 59.6185 74.5325H64.0569C64.0569 67.9469 69.4146 62.5892 76.0001 62.5892C82.5857 62.5892 87.9433 67.9469 87.9433 74.5325H92.3818C92.3818 72.1826 91.8835 69.9473 90.9886 67.9251C92.7927 66.8769 94.8264 66.3273 96.9604 66.3273C103.546 66.3273 108.904 71.6849 108.904 78.2705C108.904 83.4478 105.55 87.9292 100.858 89.5575Z" fill="#D70283"/>
</g>
<defs>
<clipPath id="clip0_2172_295">
<rect width="75.75" height="75.75" fill="white" transform="translate(38.125 41.125)"/>
</clipPath>
</defs>
</svg>
