<svg width="152" height="155" viewBox="0 0 152 155" fill="none" xmlns="http://www.w3.org/2000/svg">
<path d="M23.6875 25.2559C9.69238 38.8805 1 57.925 1 78.9998C1 120.421 34.5786 154 76 154C117.421 154 151 120.421 151 78.9998C151 57.925 142.308 38.8805 128.312 25.2559" stroke="#D70283" stroke-width="1.875" stroke-linecap="round"/>
<path d="M32.8898 22.5863L30.1676 24.6751L25.579 18.6952L28.3012 16.6064C30.1577 15.1819 32.2035 15.4272 33.6211 17.2747C35.0388 19.1222 34.7462 21.1618 32.8898 22.5863ZM28.9655 17.4722L27.1983 18.8282L30.4583 23.0766L32.2254 21.7206C33.6089 20.659 33.7816 19.5906 32.6037 18.0554C31.4257 16.5203 30.3489 16.4106 28.9655 17.4722Z" fill="#D70283"/>
<path d="M38.9288 18.4201L37.8766 19.0276L34.1078 12.4999L37.4983 10.5424C38.9792 9.68741 40.3 9.86014 41.0031 11.078C41.6275 12.1594 41.2988 13.2326 40.1106 14.0095L40.15 14.0777C40.7353 13.9216 41.1379 14.0789 41.608 14.3531L43.7904 15.6132L42.5823 16.3107L40.4992 15.1102C39.9088 14.7625 39.483 14.7226 38.6646 15.1951L37.4663 15.887L38.9288 18.4201ZM35.7056 12.8375L36.9994 15.0783L39.3279 13.7339C40.2048 13.2277 40.4688 12.6725 39.9963 11.8541C39.5351 11.0552 38.911 10.9868 38.0342 11.4931L35.7056 12.8375Z" fill="#D70283"/>
<path d="M49.5434 13.108L48.4313 13.5687L47.4368 11.1677L42.4911 7.87064L43.863 7.30236L46.5299 9.09583L47.4779 9.7382L47.561 9.70375L47.7667 8.58351L48.3739 5.43391L49.7562 4.86132L48.5575 10.7279L49.5434 13.108Z" fill="#D70283"/>
<path d="M66.3345 8.77306C64.3491 9.03444 63.0729 8.47625 62.8834 7.03742C62.7425 5.96666 63.3168 5.24426 64.3656 4.93598L64.3538 4.84675C63.3644 4.82951 62.787 4.23605 62.6798 3.42182C62.5094 2.12799 63.4407 1.3586 65.1584 1.13246L66.7088 0.928349L66.8527 2.02142L65.1461 2.24608C64.1646 2.37531 63.8013 2.71817 63.9011 3.47662C64.001 4.23508 64.5508 4.44637 65.4542 4.32743L67.8857 4.00732L67.7315 2.83617L68.9138 2.68052L69.068 3.85166L70.2838 3.69161L70.4159 4.69544L69.2002 4.8555L69.3015 5.62511C69.5232 7.30933 68.6545 8.46763 66.3345 8.77306ZM66.2352 7.67412C67.8191 7.46561 68.2793 6.99652 68.1265 5.83653L68.0179 5.01115L65.3633 5.36064C64.4598 5.47958 63.9685 5.88468 64.0816 6.74352C64.1917 7.58005 64.7406 7.87089 66.2352 7.67412Z" fill="#D70283"/>
<path d="M83.7969 8.41359L82.5923 8.255L83.5761 0.781983L89.5211 1.56465L89.3787 2.64656L84.6383 2.02249L84.3329 4.34247L88.9059 4.94452L88.765 6.01528L84.1919 5.41323L83.7969 8.41359Z" fill="#D70283"/>
<path d="M92.6244 9.94882L91.4508 9.63435L93.4016 2.35368L97.1832 3.36696C98.8349 3.80954 99.6468 4.86564 99.2828 6.22398C98.9596 7.43018 97.9683 7.95655 96.5788 7.66575L96.5584 7.74181C97.0827 8.04535 97.2561 8.44124 97.3946 8.96752L98.0468 11.4018L96.6994 11.0407L96.0753 8.71882C95.9036 8.05554 95.6308 7.72621 94.718 7.48162L93.3814 7.12348L92.6244 9.94882ZM94.2928 3.72222L93.6231 6.22155L96.2202 6.91745C97.1982 7.1795 97.7775 6.97366 98.0221 6.06086C98.2608 5.1698 97.8679 4.68017 96.8899 4.41812L94.2928 3.72222Z" fill="#D70283"/>
<path d="M106.214 14.6642L100.643 12.3567L103.527 5.39291L109.098 7.70049L108.681 8.70868L104.232 6.86606L103.423 8.82006L107.715 10.5981L107.302 11.5959L103.009 9.81785L102.183 11.8134L106.631 13.6561L106.214 14.6642Z" fill="#D70283"/>
<path d="M111.72 17.7697C109.771 16.6447 109.272 15.2136 110.066 13.8399L110.099 13.7814L111.152 14.3889L111.062 14.5448C110.612 15.3242 110.844 15.9783 112.277 16.8052C113.524 17.5252 114.12 17.5055 114.474 16.8917C114.8 16.3266 114.593 15.921 113.855 15.287L112.409 14.1015C111.42 13.271 110.933 12.3144 111.552 11.2427C112.098 10.2976 113.428 9.79282 115.455 10.9628C117.364 12.0653 117.68 13.5207 116.943 14.797L116.91 14.8555L115.867 14.2536L115.94 14.127C116.402 13.3281 116.155 12.653 114.801 11.8711C113.612 11.1849 112.976 11.2071 112.638 11.7917C112.312 12.3568 112.536 12.7332 113.21 13.3432L114.641 14.5328C115.811 15.5204 116.111 16.486 115.56 17.4408C114.986 18.4345 113.649 18.8835 111.72 17.7697Z" fill="#D70283"/>
<path d="M117.612 21.4366L116.648 20.6969L121.236 14.717L122.2 15.4567L120.255 17.9914L123.772 20.6898L125.717 18.155L126.672 18.8878L122.083 24.8677L121.128 24.1349L123.108 21.5555L119.591 18.8572L117.612 21.4366Z" fill="#D70283"/>
<g clip-path="url(#clip0_2172_311)">
<path d="M108.437 93.9284C108.437 85.4125 101.509 78.4844 92.9928 78.4844C90.5691 78.4844 86.8004 79.0146 81.7912 80.0602C77.9482 80.8623 74.0511 80.8623 70.2081 80.0602C65.199 79.0146 61.4302 78.4844 59.0065 78.4844C50.4908 78.4844 43.5625 85.4125 43.5625 93.9284C43.5625 102.444 50.4907 109.372 59.0065 109.372C61.4302 109.372 65.199 108.842 70.2081 107.796C74.0511 106.994 77.9482 106.994 81.7912 107.796C86.8004 108.842 90.5691 109.372 92.9928 109.372C101.509 109.372 108.437 102.444 108.437 93.9284ZM75.9997 105.019C73.9162 105.019 71.8328 105.235 69.7638 105.667C64.969 106.668 61.2491 107.197 59.0065 107.197C51.6901 107.197 45.7378 101.245 45.7378 93.9284C45.7378 86.612 51.6901 80.6597 59.0065 80.6597C61.2491 80.6597 64.9688 81.1887 69.7638 82.1895C73.9016 83.0531 78.0979 83.0531 82.2357 82.1895C87.0305 81.1887 90.7504 80.6597 92.993 80.6597C100.309 80.6597 106.262 86.612 106.262 93.9284C106.262 101.245 100.309 107.197 92.993 107.197C90.7504 107.197 87.0307 106.668 82.2357 105.667C80.1667 105.235 78.0832 105.019 75.9997 105.019Z" fill="#D70283"/>
<path d="M83.3269 88.4453H78.5398C77.939 88.4453 77.4522 88.9323 77.4522 89.533C77.4522 90.1336 77.939 90.6206 78.5398 90.6206H83.3269C85.1501 90.6206 86.6334 92.1044 86.6334 93.9285C86.6334 94.8125 86.2897 95.6431 85.6658 96.2671C85.0415 96.8912 84.211 97.2349 83.3269 97.2349H68.6771C66.8539 97.2349 65.3706 95.7517 65.3706 93.9285C65.3706 92.1044 66.8539 90.6206 68.6771 90.6206H73.4641C74.065 90.6206 74.5518 90.1336 74.5518 89.533C74.5518 88.9323 74.065 88.4453 73.4641 88.4453H68.6771C65.6544 88.4453 63.1953 90.905 63.1953 93.9285C63.1953 96.9511 65.6544 99.4102 68.6771 99.4102H83.3269C84.7919 99.4102 86.1689 98.8403 87.2039 97.8053C88.2387 96.7703 88.8085 95.3936 88.8085 93.9285C88.8085 90.905 86.3494 88.4453 83.3269 88.4453Z" fill="#D70283"/>
<path d="M92.7861 73.7969H59.2141C48.0373 73.7969 38.9133 82.7956 38.8751 93.8566C38.8566 99.2484 40.9421 104.321 44.7473 108.139C48.5524 111.957 53.6165 114.06 59.0067 114.06H85.1812C85.782 114.06 86.2688 113.573 86.2688 112.972C86.2688 112.372 85.782 111.885 85.1812 111.885H59.0069C54.1992 111.885 49.6823 110.009 46.2882 106.603C42.8942 103.198 41.034 98.6734 41.0506 93.864C41.0845 83.9983 49.2327 75.972 59.2143 75.972H92.7861C102.768 75.972 110.916 83.9983 110.95 93.864C110.966 98.6732 109.106 103.198 105.712 106.603C102.318 110.009 97.8012 111.885 92.9935 111.885H90.257C89.6562 111.885 89.1693 112.372 89.1693 112.972C89.1693 113.573 89.6562 114.06 90.257 114.06H92.9935C98.3837 114.06 103.448 111.957 107.253 108.139C111.058 104.321 113.144 99.2484 113.125 93.8566C113.087 82.7955 103.963 73.7969 92.7861 73.7969Z" fill="#D70283"/>
<path d="M52.7071 60.1505C56.2956 60.1505 59.215 57.2311 59.215 53.6426C59.215 50.4561 56.2482 46.6887 54.4797 44.7266C54.0277 44.2251 53.3816 43.9375 52.7073 43.9375C52.0329 43.9375 51.3869 44.2251 50.9347 44.7266C49.1662 46.6888 46.1992 50.4564 46.1992 53.6426C46.1992 57.2311 49.1186 60.1505 52.7071 60.1505ZM52.5506 46.183C52.6028 46.125 52.6646 46.1128 52.7073 46.1128C52.7498 46.1128 52.8115 46.1248 52.8637 46.183C55.5176 49.1275 57.0397 51.8464 57.0397 53.6426C57.0397 56.0317 55.0962 57.9752 52.7071 57.9752C50.3181 57.9752 48.3745 56.0317 48.3745 53.6426C48.3745 51.8464 49.8968 49.1275 52.5506 46.183Z" fill="#D70283"/>
<path d="M68.2384 60.1505C71.8269 60.1505 74.7463 57.2311 74.7463 53.6426C74.7463 50.4561 71.7795 46.6887 70.0109 44.7266C69.5589 44.2251 68.9129 43.9375 68.2385 43.9375C67.5642 43.9375 66.9181 44.2251 66.4659 44.7266C64.6974 46.6888 61.7305 50.4564 61.7305 53.6426C61.7305 57.2311 64.6499 60.1505 68.2384 60.1505ZM68.0819 46.183C68.1341 46.125 68.1959 46.1128 68.2385 46.1128C68.281 46.1128 68.3428 46.1248 68.395 46.183C71.0488 49.1275 72.571 51.8464 72.571 53.6426C72.571 56.0317 70.6274 57.9752 68.2384 57.9752C65.8493 57.9752 63.9058 56.0317 63.9058 53.6426C63.9058 51.8464 65.4279 49.1275 68.0819 46.183Z" fill="#D70283"/>
<path d="M83.7659 60.1505C87.3544 60.1505 90.2738 57.2311 90.2738 53.6426C90.2738 50.4563 87.3068 46.6888 85.5383 44.7266C85.0863 44.2251 84.4402 43.9375 83.7657 43.9375C83.0915 43.9375 82.4455 44.2251 81.9933 44.7266C80.2248 46.6888 77.2578 50.4564 77.2578 53.6426C77.2578 57.2311 80.1773 60.1505 83.7659 60.1505ZM83.6092 46.183C83.6614 46.125 83.7232 46.1128 83.7657 46.1128C83.8083 46.1128 83.8701 46.1248 83.9223 46.183C86.5763 49.1275 88.0985 51.8464 88.0985 53.6426C88.0985 56.0317 86.1549 57.9752 83.7659 57.9752C81.3767 57.9752 79.4331 56.0317 79.4331 53.6426C79.4331 51.8464 80.9552 49.1275 83.6092 46.183Z" fill="#D70283"/>
<path d="M99.2931 60.1505C102.882 60.1505 105.801 57.2311 105.801 53.6426C105.801 50.4563 102.834 46.6888 101.065 44.7266C100.613 44.2251 99.9674 43.9375 99.2929 43.9375C98.6187 43.9375 97.9727 44.2251 97.5205 44.7266C95.752 46.6887 92.7852 50.4563 92.7852 53.6426C92.7852 57.2311 95.7045 60.1505 99.2931 60.1505ZM99.1364 46.183C99.1886 46.125 99.2504 46.1128 99.2929 46.1128C99.3355 46.1128 99.3973 46.1248 99.4495 46.183C102.104 49.1275 103.626 51.8464 103.626 53.6426C103.626 56.0317 101.682 57.9752 99.2931 57.9752C96.904 57.9752 94.9604 56.0317 94.9604 53.6426C94.9604 51.8463 96.4826 49.1275 99.1364 46.183Z" fill="#D70283"/>
<path d="M52.7064 64.5444C53.5342 64.5444 54.2974 64.9612 54.7482 65.6593C54.9484 65.9697 55.2926 66.1571 55.6619 66.1571H65.2811C65.6507 66.1571 65.9952 65.9692 66.1954 65.6585C66.645 64.9609 67.4074 64.5444 68.2351 64.5444C69.0628 64.5444 69.8261 64.9612 70.2769 65.6593C70.4773 65.9697 70.8213 66.1571 71.1906 66.1571H73.4616C74.0624 66.1571 74.5493 65.6701 74.5493 65.0694C74.5493 64.4687 74.0624 63.9818 73.4616 63.9818H71.7342C70.8648 62.9624 69.5961 62.3691 68.2351 62.3691C66.8734 62.3691 65.6053 62.9624 64.737 63.9818H56.2055C55.3362 62.9624 54.0677 62.3691 52.7064 62.3691C50.1683 62.3691 48.1035 64.4347 48.1035 66.9735C48.1035 69.5115 50.1683 71.5764 52.7064 71.5764C54.0672 71.5764 55.3355 70.9837 56.205 69.9653H64.7374C65.6061 70.9837 66.874 71.5764 68.2351 71.5764C69.5957 71.5764 70.864 70.9837 71.7337 69.9653H80.2652C81.1349 70.9836 82.4032 71.5764 83.7638 71.5764C85.125 71.5764 86.3929 70.9837 87.2615 69.9653H95.7939C96.6634 70.9837 97.9318 71.5764 99.2925 71.5764C101.831 71.5764 103.895 69.5116 103.895 66.9735C103.895 64.4347 101.831 62.3691 99.2925 62.3691C97.9312 62.3691 96.6627 62.9624 95.7935 63.9818H87.262C86.3936 62.9624 85.1256 62.3691 83.7638 62.3691C82.4028 62.3691 81.1342 62.9624 80.2648 63.9818H78.5373C77.9365 63.9818 77.4497 64.4687 77.4497 65.0694C77.4497 65.6701 77.9365 66.1571 78.5373 66.1571H80.8083C81.1777 66.1571 81.5217 65.9697 81.7221 65.6593C82.1728 64.9612 82.9362 64.5444 83.7638 64.5444C84.5916 64.5444 85.3541 64.9609 85.8035 65.6585C86.0038 65.9692 86.3482 66.1571 86.7179 66.1571H90.8959V67.79H86.7179C86.3484 67.79 86.0042 67.9775 85.804 68.288C85.3541 68.9851 84.5914 69.4011 83.7638 69.4011C82.9363 69.4011 82.1728 68.9846 81.7217 68.287C81.5212 67.977 81.1774 67.79 80.8083 67.79H71.1906C70.8216 67.79 70.4777 67.9772 70.2773 68.287C69.8261 68.9846 69.0626 69.4011 68.2351 69.4011C67.4075 69.4011 66.6447 68.9849 66.195 68.288C65.9947 67.9775 65.6506 67.79 65.2811 67.79H55.6619C55.2929 67.79 54.949 67.9772 54.7486 68.2871C54.2976 68.9846 53.5341 69.4011 52.7064 69.4011C51.3679 69.4011 50.2788 68.3122 50.2788 66.9735C50.2788 65.6341 51.3679 64.5444 52.7064 64.5444ZM93.0712 66.1571H96.3369C96.7062 66.1571 97.0504 65.9697 97.2506 65.6593C97.7014 64.9612 98.4646 64.5444 99.2924 64.5444C100.631 64.5444 101.72 65.6341 101.72 66.9735C101.72 68.312 100.631 69.4011 99.2924 69.4011C98.4647 69.4011 97.7012 68.9846 97.2502 68.2871C97.0498 67.9772 96.7059 67.79 96.3369 67.79H93.0712V66.1571Z" fill="#D70283"/>
<path d="M60.6404 90.6206C61.2411 90.6206 61.728 90.1336 61.728 89.533C61.728 88.9323 61.2411 88.4453 60.6404 88.4453C60.0397 88.4453 59.5527 88.9323 59.5527 89.533C59.5527 90.1336 60.0397 90.6206 60.6404 90.6206Z" fill="#D70283"/>
<path d="M55.9392 90.6206C56.5399 90.6206 57.0269 90.1336 57.0269 89.533C57.0269 88.9323 56.5399 88.4453 55.9392 88.4453C55.3385 88.4453 54.8516 88.9323 54.8516 89.533C54.8516 90.1336 55.3385 90.6206 55.9392 90.6206Z" fill="#D70283"/>
<path d="M54.4744 95.0151C55.0751 95.0151 55.562 94.5282 55.562 93.9275C55.562 93.3268 55.0751 92.8398 54.4744 92.8398C53.8737 92.8398 53.3867 93.3268 53.3867 93.9275C53.3867 94.5282 53.8737 95.0151 54.4744 95.0151Z" fill="#D70283"/>
<path d="M59.1755 95.0151C59.7762 95.0151 60.2632 94.5282 60.2632 93.9275C60.2632 93.3268 59.7762 92.8398 59.1755 92.8398C58.5748 92.8398 58.0879 93.3268 58.0879 93.9275C58.0879 94.5282 58.5748 95.0151 59.1755 95.0151Z" fill="#D70283"/>
<path d="M60.6404 99.4116C61.2411 99.4116 61.728 98.9247 61.728 98.324C61.728 97.7233 61.2411 97.2363 60.6404 97.2363C60.0397 97.2363 59.5527 97.7233 59.5527 98.324C59.5527 98.9247 60.0397 99.4116 60.6404 99.4116Z" fill="#D70283"/>
<path d="M55.9392 99.4116C56.5399 99.4116 57.0269 98.9247 57.0269 98.324C57.0269 97.7233 56.5399 97.2363 55.9392 97.2363C55.3385 97.2363 54.8516 97.7233 54.8516 98.324C54.8516 98.9247 55.3385 99.4116 55.9392 99.4116Z" fill="#D70283"/>
<path d="M91.3572 90.6206C91.9579 90.6206 92.4448 90.1336 92.4448 89.533C92.4448 88.9323 91.9579 88.4453 91.3572 88.4453C90.7565 88.4453 90.2695 88.9323 90.2695 89.533C90.2695 90.1336 90.7565 90.6206 91.3572 90.6206Z" fill="#D70283"/>
<path d="M96.0603 90.6206C96.661 90.6206 97.1479 90.1336 97.1479 89.533C97.1479 88.9323 96.661 88.4453 96.0603 88.4453C95.4596 88.4453 94.9727 88.9323 94.9727 89.533C94.9727 90.1336 95.4596 90.6206 96.0603 90.6206Z" fill="#D70283"/>
<path d="M97.5251 95.0151C98.1258 95.0151 98.6128 94.5282 98.6128 93.9275C98.6128 93.3268 98.1258 92.8398 97.5251 92.8398C96.9245 92.8398 96.4375 93.3268 96.4375 93.9275C96.4375 94.5282 96.9245 95.0151 97.5251 95.0151Z" fill="#D70283"/>
<path d="M92.822 95.0151C93.4227 95.0151 93.9097 94.5282 93.9097 93.9275C93.9097 93.3268 93.4227 92.8398 92.822 92.8398C92.2213 92.8398 91.7344 93.3268 91.7344 93.9275C91.7344 94.5282 92.2213 95.0151 92.822 95.0151Z" fill="#D70283"/>
<path d="M91.3572 99.4116C91.9579 99.4116 92.4448 98.9247 92.4448 98.324C92.4448 97.7233 91.9579 97.2363 91.3572 97.2363C90.7565 97.2363 90.2695 97.7233 90.2695 98.324C90.2695 98.9247 90.7565 99.4116 91.3572 99.4116Z" fill="#D70283"/>
<path d="M96.0603 99.4116C96.661 99.4116 97.1479 98.9247 97.1479 98.324C97.1479 97.7233 96.661 97.2363 96.0603 97.2363C95.4596 97.2363 94.9727 97.7233 94.9727 98.324C94.9727 98.9247 95.4596 99.4116 96.0603 99.4116Z" fill="#D70283"/>
</g>
<defs>
<clipPath id="clip0_2172_311">
<rect width="74.25" height="74.25" fill="white" transform="translate(38.875 41.875)"/>
</clipPath>
</defs>
</svg>
