<svg width="151" height="150" viewBox="0 0 151 150" fill="none" xmlns="http://www.w3.org/2000/svg">
<path d="M69.7957 49.9161C70.0883 46.8075 69.5176 43.6784 68.1463 40.8733C68.0608 40.6997 67.9367 40.5479 67.7835 40.4297C67.6303 40.3114 67.452 40.2297 67.2624 40.1908C67.0728 40.152 66.8768 40.1571 66.6895 40.2056C66.5021 40.2541 66.3283 40.3449 66.1814 40.4709C63.4766 42.808 61.5778 45.9385 60.7551 49.4172C59.9323 52.8958 60.2275 56.5453 61.5987 59.8464" stroke="#D70283" stroke-width="3.50305" stroke-linecap="round" stroke-linejoin="round"/>
<path d="M57.0404 82.3486C56.4107 84.5781 56.5504 86.9547 57.4369 89.0951C58.5191 91.8517 59.0962 94.7806 59.1404 97.7417V106.332C59.1207 107.301 59.4698 108.242 60.1172 108.964C60.7646 109.686 61.6619 110.135 62.6277 110.22C63.1277 110.247 63.6279 110.172 64.0978 109.999C64.5677 109.826 64.9975 109.56 65.3609 109.215C65.7243 108.871 66.0137 108.456 66.2115 107.996C66.4093 107.536 66.5114 107.041 66.5114 106.54V99.5839C67.5888 100.291 78.9301 102.855 78.9301 102.855" stroke="#D70283" stroke-width="3.50305" stroke-linecap="round" stroke-linejoin="round"/>
<path d="M94.5097 95.2924V95.0898H94.508C94.5312 89.2785 89.3267 82.5027 81.1968 78.5299C76.6218 76.1697 71.4597 75.1891 66.3379 75.7073" stroke="#D70283" stroke-width="3.50305" stroke-linecap="round" stroke-linejoin="round"/>
<path d="M84.7716 102.854H78.9273C77.9579 102.835 77.0171 103.184 76.2953 103.831C75.5734 104.478 75.1242 105.376 75.0385 106.342C75.0116 106.842 75.0869 107.342 75.2597 107.812C75.4325 108.282 75.6992 108.711 76.0436 109.075C76.388 109.438 76.8028 109.728 77.2628 109.925C77.7227 110.123 78.2182 110.225 78.7189 110.225H87.1389C88.8746 110.225 90.5547 109.613 91.8833 108.496C93.2119 107.379 94.1037 105.829 94.4019 104.119" stroke="#D70283" stroke-width="3.50305" stroke-linecap="round" stroke-linejoin="round"/>
<path d="M68.2408 65.233C68.0532 64.2853 67.5884 63.4148 66.9053 62.7317C66.2223 62.0487 65.3517 61.5839 64.4041 61.3963C62.0462 60.9391 59.612 61.0676 57.3153 61.7704C55.0185 62.4731 52.9293 63.7288 51.2309 65.4272C49.5325 67.1256 48.2769 69.2148 47.5741 71.5116C46.8713 73.8083 46.7428 76.2425 47.2 78.6004C47.3876 79.548 47.8524 80.4186 48.5355 81.1016C49.2185 81.7847 50.0891 82.2495 51.0367 82.4371C53.3946 82.8943 55.8288 82.7659 58.1255 82.0631C60.4223 81.3603 62.5115 80.1046 64.2099 78.4062C65.9083 76.7078 67.164 74.6186 67.8668 72.3218C68.5696 70.0251 68.698 67.5909 68.2408 65.233Z" stroke="#D70283" stroke-width="3.50305" stroke-linecap="round" stroke-linejoin="round"/>
<path d="M98.2771 105.593C101.502 105.593 104.117 102.979 104.117 99.7536C104.117 96.5285 101.502 93.9141 98.2771 93.9141C95.052 93.9141 92.4375 96.5285 92.4375 99.7536C92.4375 102.979 95.052 105.593 98.2771 105.593Z" stroke="#D70283" stroke-width="3.50305" stroke-linecap="round" stroke-linejoin="round"/>
<path d="M68.372 50.7551C65.2398 52.8191 62.8804 55.8634 61.6632 59.4114C61.6009 59.5947 61.5814 59.7898 61.6061 59.9818C61.6308 60.1737 61.699 60.3575 61.8056 60.519C61.9123 60.6806 62.0544 60.8156 62.2212 60.9138C62.388 61.0119 62.5751 61.0706 62.7681 61.0854C66.5088 61.358 70.2345 60.3855 73.3647 58.3194C76.495 56.2534 78.8538 53.2098 80.0736 49.6631C80.1359 49.4799 80.1554 49.2848 80.1307 49.0928C80.106 48.9009 80.0378 48.7171 79.9311 48.5555C79.8245 48.394 79.6824 48.259 79.5156 48.1608C79.3487 48.0627 79.1617 48.0039 78.9687 47.9892C75.2278 47.7137 71.5011 48.6864 68.372 50.7551Z" stroke="#D70283" stroke-width="3.50305" stroke-linecap="round" stroke-linejoin="round"/>
<path d="M57.1688 70.6403C57.9427 70.6403 58.57 70.013 58.57 69.2391C58.57 68.4652 57.9427 67.8379 57.1688 67.8379C56.3949 67.8379 55.7676 68.4652 55.7676 69.2391C55.7676 70.013 56.3949 70.6403 57.1688 70.6403Z" stroke="#D70283" stroke-width="3.50305" stroke-linecap="round" stroke-linejoin="round"/>
<path d="M53.8566 122.774L62.1923 125.764L61.2333 128.437L56.2216 126.64L55.4838 128.697L60.1967 130.388L59.2377 133.061L54.5248 131.37L52.9295 135.82L49.6055 134.627L53.8566 122.774Z" fill="#D70283"/>
<path d="M64.6815 126.566C66.168 126.533 67.6549 126.606 69.131 126.784C70.6977 126.821 72.2151 127.339 73.4768 128.268C73.8679 128.631 74.1631 129.086 74.336 129.591C74.5089 130.095 74.5542 130.635 74.4677 131.162C74.3692 131.827 74.0713 132.447 73.6132 132.939C73.1551 133.432 72.5584 133.774 71.902 133.92L71.894 133.994C72.2861 134.269 72.6144 134.625 72.8566 135.038C73.0988 135.452 73.2493 135.912 73.2978 136.389C73.5806 137.718 73.8018 139.604 73.9888 140.113L70.4242 139.713C70.1078 138.749 69.8919 137.754 69.7799 136.745C69.5587 135.198 69.0911 134.845 67.9212 134.713L67.2895 134.643L66.7672 139.303L63.2949 138.913L64.6815 126.566ZM67.5677 132.173L68.6065 132.29C69.9806 132.444 70.8598 131.979 70.9669 131.032C71.073 130.085 70.4219 129.523 69.2337 129.39C68.7882 129.325 68.338 129.3 67.8881 129.314L67.5677 132.173Z" fill="#D70283"/>
<path d="M86.878 133.964L81.7957 134.57L82.05 136.703L87.7253 136.027L88.0606 138.846L78.8799 139.94L77.3906 127.438L86.2942 126.378L86.6295 129.197L81.2324 129.84L81.4593 131.751L86.5417 131.145L86.878 133.964Z" fill="#D70283"/>
<path d="M99.6171 129.991L94.798 131.715L95.521 133.737L100.902 131.812L101.859 134.486L93.1537 137.599L88.9141 125.746L97.3558 122.727L98.3114 125.4L93.1948 127.23L93.8425 129.042L98.6604 127.318L99.6171 129.991Z" fill="#D70283"/>
<path d="M46.3815 31.2269C45.7746 32.29 44.963 33.2223 43.9936 33.9699C40.0596 37.2141 36.4345 36.401 34.2839 33.792C31.5026 30.419 32.6578 26.4165 35.8427 23.7897C36.7633 22.9673 37.8498 22.3523 39.0288 21.9863L40.2021 24.5543C39.3051 24.838 38.4722 25.2943 37.7504 25.8976C36.122 27.2403 35.4048 29.3083 36.9978 31.24C38.3765 32.9117 40.478 33.1403 42.4816 31.4886C43.177 30.9239 43.7716 30.2453 44.2399 29.4816L46.3815 31.2269Z" fill="#D70283"/>
<path d="M43.3086 19.0745C44.5524 18.26 45.8526 17.535 47.1993 16.9051C48.5478 16.1072 50.1095 15.7443 51.6716 15.8657C52.1957 15.9664 52.6867 16.1955 53.1006 16.5324C53.5145 16.8693 53.8385 17.3035 54.0435 17.7962C54.3119 18.4127 54.387 19.096 54.259 19.7561C54.1309 20.4161 53.8057 21.0218 53.3262 21.4931L53.3582 21.5604C53.8364 21.5864 54.3035 21.7149 54.7277 21.9374C55.1519 22.1598 55.5233 22.4709 55.8167 22.8495C56.7597 23.8273 57.9445 25.3109 58.3733 25.6444L55.137 27.1907C54.3587 26.5396 53.6495 25.8102 53.0206 25.0138C52.0137 23.8176 51.4299 23.7652 50.3683 24.2726L49.7947 24.5463L51.8164 28.7774L48.6646 30.2832L43.3086 19.0745ZM48.724 22.305L49.6681 21.8541C50.9156 21.2577 51.4151 20.3979 51.0046 19.5381C50.5941 18.6789 49.7434 18.5466 48.6647 19.062C48.2528 19.243 47.8575 19.4595 47.4833 19.7092L48.724 22.305Z" fill="#D70283"/>
<path d="M61.0371 12.0992L62.3223 18.8162C62.694 20.7615 63.6485 21.8722 65.2267 21.5706C66.8049 21.2684 67.2997 19.9753 66.9098 17.9387L65.6246 11.2217L69.0935 10.5586L70.3604 17.1833C71.1335 21.2205 69.3546 23.5582 65.5928 24.2777C62.0509 24.9556 59.6323 23.5536 58.8181 19.2957L57.5684 12.7628L61.0371 12.0992Z" fill="#D70283"/>
<path d="M83.1404 18.4638L78.0283 18.1656L77.904 20.3111L83.6125 20.6435L83.4471 23.4795L74.2129 22.9413L74.945 10.3682L83.8999 10.8899L83.7346 13.7253L78.3055 13.4088L78.1938 15.3302L83.3058 15.6279L83.1404 18.4638Z" fill="#D70283"/>
<path d="M89.3355 11.8604L92.7303 12.8302L90.0825 22.0975L95.3085 23.5908L94.4977 26.4284L85.877 23.9654L89.3355 11.8604Z" fill="#D70283"/>
<path d="M101.338 18.9998L98.1587 17.4222L99.4369 14.8457L109.024 19.6037L107.745 22.1802L104.5 20.5689L100.182 29.269L97.0195 27.6999L101.338 18.9998Z" fill="#D70283"/>
<path d="M107.617 34.1212L110.997 30.1056L112.379 21.6758L115.538 24.3333L114.634 27.2348C114.344 28.1876 114.181 28.7583 113.919 29.5628L113.948 29.5867C114.645 29.2218 115.269 28.9162 116.093 28.4874L118.809 27.0877L121.925 29.7093L113.782 32.2784L110.317 36.3939L107.617 34.1212Z" fill="#D70283"/>
<path d="M110.02 122.293C116.291 117.705 121.582 111.911 125.583 105.25C129.584 98.5885 132.214 91.1951 133.317 83.5037C134.421 75.8123 133.977 67.9778 132.012 60.4603C130.046 52.9429 126.598 45.894 121.87 39.7275" stroke="#D70283" stroke-width="3.50305" stroke-linecap="round" stroke-linejoin="round"/>
<path d="M29.1799 39.7275C24.4521 45.894 21.004 52.9429 19.0382 60.4603C17.0723 67.9778 16.6284 75.8123 17.7323 83.5037C18.8362 91.1951 21.4658 98.5885 25.4667 105.25C29.4675 111.911 34.7589 117.705 41.0302 122.293" stroke="#D70283" stroke-width="3.50305" stroke-linecap="round" stroke-linejoin="round"/>
</svg>
