<svg width="150" height="150" viewBox="0 0 150 150" fill="none" xmlns="http://www.w3.org/2000/svg">
<path d="M59.8295 56.4946C59.8751 56.9244 60.0779 57.3223 60.3991 57.6115C60.7203 57.9008 61.1371 58.0611 61.5694 58.0616C61.6318 58.0616 61.6942 58.0581 61.7562 58.0511C62.2181 58.0023 62.6416 57.772 62.9338 57.4109C63.2259 57.0498 63.3626 56.5875 63.3139 56.1256L62.451 47.9892C62.4019 47.5273 62.1713 47.1038 61.81 46.8119C61.4487 46.52 60.9862 46.3836 60.5243 46.4327L52.382 47.2967C52.1484 47.3146 51.9206 47.3791 51.7123 47.4865C51.5041 47.5939 51.3194 47.7421 51.1694 47.9221C51.0194 48.1022 50.9071 48.3105 50.8391 48.5348C50.7711 48.7591 50.7487 48.9947 50.7734 49.2278C50.7981 49.4608 50.8693 49.6865 50.9829 49.8916C51.0964 50.0966 51.2499 50.2768 51.4343 50.4214C51.6187 50.566 51.8303 50.6722 52.0564 50.7336C52.2826 50.795 52.5188 50.8103 52.751 50.7788L56.4012 50.3923C54.1517 53.4765 53.0498 57.2495 53.2858 61.0597C53.5218 64.8699 55.0809 68.478 57.6938 71.2611C58.0114 71.6002 58.4507 71.7993 58.9151 71.8145C59.3794 71.8297 59.8308 71.6598 60.1699 71.3422C60.509 71.0247 60.7081 70.5854 60.7233 70.121C60.7385 69.6567 60.5686 69.2053 60.2511 68.8662C58.1646 66.6435 56.9323 63.7539 56.7726 60.7095C56.613 57.6651 57.5362 54.6624 59.3788 52.2337L59.8295 56.4946Z" fill="#D70283"/>
<path d="M77.6469 56.3694C77.6925 56.7993 77.8953 57.1971 78.2165 57.4864C78.5377 57.7757 78.9545 57.936 79.3868 57.9365C79.4492 57.9364 79.5116 57.9329 79.5736 57.926C80.0353 57.8768 80.4586 57.6464 80.7504 57.2854C81.0423 56.9243 81.1789 56.4621 81.1301 56.0004L80.2672 47.8582C80.2181 47.3965 79.9877 46.9733 79.6266 46.6814C79.2656 46.3895 78.8034 46.2529 78.3417 46.3017L70.1995 47.1646C69.9683 47.1857 69.7436 47.2526 69.5385 47.3613C69.3335 47.4701 69.152 47.6185 69.0048 47.7979C68.8576 47.9774 68.7475 48.1843 68.6809 48.4067C68.6144 48.6291 68.5927 48.8625 68.6172 49.0933C68.6416 49.3242 68.7117 49.5479 68.8234 49.7514C68.935 49.9549 69.086 50.1342 69.2676 50.2788C69.4492 50.4234 69.6577 50.5305 69.881 50.5939C70.1043 50.6572 70.338 50.6756 70.5684 50.6478L74.2175 50.2601C71.966 53.3449 70.8632 57.1194 71.0997 60.931C71.3361 64.7427 72.897 68.3519 75.5124 71.1348C75.6678 71.3094 75.8566 71.4511 76.0676 71.5516C76.2787 71.6521 76.5077 71.7094 76.7412 71.72C76.9747 71.7306 77.208 71.6944 77.4273 71.6135C77.6466 71.5325 77.8474 71.4085 78.018 71.2487C78.1887 71.089 78.3256 70.8966 78.4207 70.6831C78.5158 70.4696 78.5673 70.2392 78.572 70.0055C78.5767 69.7718 78.5345 69.5395 78.4481 69.3224C78.3616 69.1052 78.2325 68.9075 78.0685 68.741C75.9815 66.5189 74.7487 63.6295 74.5889 60.5852C74.429 57.5408 75.3523 54.5382 77.195 52.1097L77.6469 56.3694Z" fill="#D70283"/>
<path d="M95.4639 56.3696C95.5094 56.7993 95.7121 57.197 96.033 57.4862C96.354 57.7755 96.7705 57.9359 97.2026 57.9367C97.265 57.9367 97.3274 57.9332 97.3894 57.9262C97.8502 57.8759 98.2723 57.645 98.5632 57.2841C98.8541 56.9232 98.99 56.4616 98.9412 56.0007L98.0783 47.8584C98.0555 47.6292 97.9874 47.4068 97.878 47.2042C97.7685 47.0015 97.6199 46.8226 97.4408 46.6778C97.2617 46.533 97.0556 46.4252 96.8345 46.3607C96.6134 46.2962 96.3817 46.2762 96.1528 46.3019L88.0106 47.1648C87.7799 47.1866 87.5558 47.254 87.3513 47.363C87.1468 47.472 86.966 47.6205 86.8193 47.7999C86.6727 47.9793 86.563 48.1861 86.4968 48.4081C86.4306 48.6302 86.4091 48.8632 86.4336 49.0937C86.4581 49.3241 86.5281 49.5474 86.6395 49.7506C86.7509 49.9538 86.9015 50.1328 87.0826 50.2774C87.2637 50.422 87.4717 50.5292 87.6945 50.5928C87.9174 50.6564 88.1506 50.6752 88.3807 50.648L92.0286 50.2603C89.7781 53.3454 88.6757 57.1196 88.912 60.9309C89.1482 64.7423 90.7081 68.3515 93.3224 71.135C93.4778 71.3096 93.6665 71.4513 93.8776 71.5519C94.0886 71.6524 94.3176 71.7096 94.5511 71.7202C94.7847 71.7309 95.0179 71.6946 95.2372 71.6137C95.4565 71.5328 95.6574 71.4087 95.828 71.249C95.9986 71.0892 96.1355 70.8969 96.2306 70.6834C96.3258 70.4698 96.3772 70.2394 96.3819 70.0057C96.3866 69.772 96.3445 69.5398 96.258 69.3226C96.1715 69.1054 96.0425 68.9078 95.8784 68.7413C93.7924 66.518 92.5606 63.6282 92.4012 60.5837C92.2417 57.5392 93.165 54.5366 95.0073 52.1076L95.4639 56.3696Z" fill="#D70283"/>
<path d="M111.902 86.275C111.902 85.8104 111.718 85.3649 111.389 85.0364C111.061 84.708 110.615 84.5234 110.151 84.5234H39.6226C39.1581 84.5234 38.7126 84.708 38.3841 85.0364C38.0556 85.3649 37.8711 85.8104 37.8711 86.275C37.8711 86.7395 38.0556 87.185 38.3841 87.5135C38.7126 87.842 39.1581 88.0265 39.6226 88.0265H110.151C110.615 88.0265 111.061 87.842 111.389 87.5135C111.718 87.185 111.902 86.7395 111.902 86.275Z" fill="#D70283"/>
<path d="M110.151 75.7793H39.6226C39.1581 75.7793 38.7126 75.9638 38.3841 76.2923C38.0556 76.6208 37.8711 77.0663 37.8711 77.5308C37.8711 77.9954 38.0556 78.4409 38.3841 78.7693C38.7126 79.0978 39.1581 79.2823 39.6226 79.2823H110.151C110.615 79.2823 111.061 79.0978 111.389 78.7693C111.718 78.4409 111.902 77.9954 111.902 77.5308C111.902 77.0663 111.718 76.6208 111.389 76.2923C111.061 75.9638 110.615 75.7793 110.151 75.7793Z" fill="#D70283"/>
<path d="M89.5219 115.178C89.8609 115.496 90.3121 115.666 90.7763 115.651C91.2406 115.635 91.6798 115.437 91.9974 115.098C94.8512 112.054 96.4394 108.038 96.4394 103.866C96.4394 99.6941 94.8512 95.6784 91.9974 92.6349C91.842 92.4603 91.6532 92.3186 91.4422 92.218C91.2311 92.1175 91.0021 92.0603 90.7686 92.0497C90.5351 92.039 90.3018 92.0753 90.0825 92.1562C89.8632 92.2371 89.6624 92.3612 89.4918 92.5209C89.3211 92.6807 89.1842 92.873 89.0891 93.0865C88.994 93.3001 88.9426 93.5305 88.9379 93.7642C88.9332 93.9979 88.9753 94.2301 89.0617 94.4473C89.1482 94.6645 89.2773 94.8621 89.4413 95.0286C91.6865 97.4234 92.936 100.583 92.936 103.866C92.936 107.148 91.6865 110.308 89.4413 112.703C89.1238 113.042 88.9539 113.493 88.969 113.957C88.9841 114.421 89.183 114.861 89.5219 115.178Z" fill="#D70283"/>
<path d="M71.7042 115.304C71.8722 115.461 72.0695 115.584 72.2849 115.665C72.5002 115.746 72.7295 115.784 72.9595 115.776C73.1895 115.769 73.4157 115.716 73.6253 115.621C73.8349 115.526 74.0237 115.39 74.1809 115.222C77.0339 112.178 78.6216 108.163 78.6216 103.991C78.6216 99.8189 77.0339 95.8033 74.1809 92.7594C73.8633 92.4203 73.424 92.2212 72.9597 92.206C72.4953 92.1908 72.0439 92.3607 71.7048 92.6783C71.3657 92.9958 71.1666 93.4351 71.1514 93.8995C71.1362 94.3638 71.3061 94.8152 71.6237 95.1543C73.8689 97.5491 75.1184 100.709 75.1184 103.991C75.1184 107.274 73.8689 110.434 71.6237 112.828C71.3061 113.167 71.1362 113.619 71.1513 114.083C71.1664 114.547 71.3653 114.986 71.7042 115.304Z" fill="#D70283"/>
<path d="M53.8889 115.304C54.228 115.621 54.6793 115.791 55.1436 115.776C55.6078 115.76 56.0469 115.561 56.3644 115.222C59.2182 112.179 60.8064 108.163 60.8064 103.991C60.8064 99.8186 59.2182 95.8029 56.3644 92.7594C56.0468 92.4203 55.6075 92.2212 55.1432 92.206C54.6788 92.1908 54.2274 92.3607 53.8883 92.6783C53.5492 92.9958 53.3501 93.4351 53.3349 93.8995C53.3197 94.3638 53.4896 94.8152 53.8072 95.1543C56.0531 97.5487 57.3032 100.708 57.3032 103.991C57.3032 107.274 56.0531 110.434 53.8072 112.828C53.4898 113.167 53.3201 113.619 53.3354 114.083C53.3507 114.547 53.5498 114.986 53.8889 115.304Z" fill="#D70283"/>
<path d="M28.4873 51.7513C29.8243 49.2875 30.2634 47.6551 30.1525 46.4465C30.1095 45.8815 29.927 45.336 29.6213 44.8589C29.3156 44.3818 28.8963 43.9881 28.4009 43.713C27.7569 43.3578 27.0085 43.2404 26.2867 43.3816C25.5649 43.5227 24.9158 43.9132 24.453 44.4848L24.4203 44.4673C24.5828 43.8784 24.5448 43.2522 24.3123 42.6874C24.0797 42.1225 23.6658 41.651 23.1358 41.3472C22.6158 41.0657 22.0204 40.9546 21.4338 41.0296C20.8471 41.1046 20.2989 41.362 19.8663 41.7653C18.8688 42.6875 18.0646 43.7989 17.5006 45.0348C16.8164 46.2884 16.2191 47.5876 15.7129 48.9232L26.5723 54.8118C27.2877 53.8419 27.9279 52.8188 28.4873 51.7513ZM21.7755 47.39L21.4252 48.0462L19.4215 46.9591C19.571 46.5613 19.7518 46.1759 19.9621 45.8066C20.5576 44.7067 21.2138 44.3599 21.8374 44.6985C22.5216 45.0698 22.5602 45.9432 21.7755 47.39ZM23.5877 49.2221L24.0245 48.4164C24.7017 47.1681 25.5214 46.4021 26.4579 46.9089C27.4271 47.4355 27.315 48.5437 26.7265 49.6284C26.5545 49.9675 26.3623 50.2958 26.1508 50.6116L23.5877 49.2221Z" fill="#D70283"/>
<path d="M35.445 41.1202L31.9828 37.9534L32.4113 37.4864C33.2065 36.6176 33.7682 36.446 35.1495 37.1793C36.0319 37.6816 36.9636 38.0921 37.9298 38.4042L40.3516 35.757C39.8296 35.6087 38.1738 34.6769 36.9326 34.1223C36.5183 33.8808 36.057 33.7315 35.5798 33.6843C35.1027 33.6372 34.621 33.6933 34.1675 33.849L34.1126 33.7977C34.3814 33.1809 34.4565 32.4969 34.3278 31.8365C34.1992 31.1761 33.8729 30.5704 33.3922 30.0996C33.0175 29.7204 32.555 29.4396 32.0458 29.2821C31.5365 29.1247 30.9962 29.0954 30.473 29.197C28.9789 29.6706 27.6669 30.5928 26.7154 31.8383C25.7021 32.9278 24.7679 34.0883 23.9199 35.311L33.0816 43.6984L35.445 41.1202ZM30.8548 35.5036L30.1542 36.2766L28.0255 34.3336C28.2787 33.9615 28.5639 33.6122 28.8779 33.2897C29.6859 32.4069 30.5232 32.2108 31.2273 32.8542C31.9314 33.4976 31.7889 34.4842 30.8548 35.5036Z" fill="#D70283"/>
<path d="M49.5631 29.3929L47.9622 27.0482L43.2413 30.2699L42.0304 28.4961L46.2574 25.6108L44.6577 23.2649L40.4295 26.1503L39.3447 24.5622L43.8356 21.4971L42.2347 19.1523L34.8281 24.2061L41.9253 34.6055L49.5631 29.3929Z" fill="#D70283"/>
<path d="M54.2466 27.2546L53.9466 24.1018L57.3854 22.8407L59.3179 25.398L63.0043 24.0516L54.6845 13.6768L50.1562 15.336L50.7529 28.5309L54.2466 27.2546ZM53.114 16.7805C53.5811 17.3877 54.1369 18.1572 54.5923 18.7468L55.9935 20.6046L53.5414 21.5049L53.344 19.2279C53.2868 18.4736 53.1467 17.5488 53.0895 16.7933L53.114 16.7805Z" fill="#D70283"/>
<path d="M64.9544 14.1483L66.2236 23.784L69.7255 23.3216L68.4562 13.6859L72.0504 13.213L71.6756 10.3604L61.0566 11.7581L61.4326 14.6119L64.9544 14.1483Z" fill="#D70283"/>
<path d="M79.4337 18.2456L84.1441 18.8154L83.5451 23.7676L87.0505 24.1926L88.5638 11.6902L85.0584 11.2664L84.5073 15.811L79.7969 15.24L80.3468 10.6965L76.8414 10.2715L75.3281 22.7727L78.8335 23.1977L79.4337 18.2456Z" fill="#D70283"/>
<path d="M94.0995 23.4396L97.4858 24.8478L97.1694 28.0344L100.789 29.5419L101.713 16.2887L97.2628 14.4355L88.748 24.5302L92.181 25.9594L94.0995 23.4396ZM96.9569 19.4484C97.4239 18.8541 97.9506 18.0811 98.42 17.4879L98.4562 17.5019C98.3814 18.2609 98.2717 19.2067 98.2063 19.954L97.9727 22.2649L95.5556 21.249L96.9569 19.4484Z" fill="#D70283"/>
<path d="M105.223 33.0121C107.451 34.7146 108.994 35.4012 110.204 35.4794C110.768 35.5253 111.335 35.4304 111.854 35.2031C112.373 34.9759 112.827 34.6235 113.176 34.1775C113.627 33.597 113.859 32.8762 113.832 32.1415C113.805 31.4068 113.52 30.7051 113.027 30.1595L113.05 30.1291C113.606 30.3808 114.23 30.4402 114.824 30.2982C115.418 30.1561 115.948 29.8206 116.331 29.3444C116.688 28.8745 116.89 28.3044 116.906 27.7142C116.923 27.124 116.755 26.5433 116.424 26.0539C115.67 24.9256 114.699 23.9587 113.567 23.2094C112.433 22.3362 111.24 21.5419 109.997 20.832L102.496 30.6406C103.344 31.4985 104.255 32.2913 105.223 33.0121ZM111.366 24.7963C111.734 25.0051 112.086 25.2428 112.417 25.5074C113.41 26.2688 113.651 26.9694 113.22 27.5345C112.744 28.1569 111.877 28.0588 110.571 27.0605L109.977 26.6062L111.366 24.7963ZM108.483 28.5656L109.21 29.1214C110.337 29.9843 110.962 30.9126 110.322 31.7592C109.652 32.635 108.57 32.3524 107.595 31.6027C107.286 31.3808 106.992 31.1398 106.713 30.8811L108.483 28.5656Z" fill="#D70283"/>
<path d="M118.18 45.8433L120.461 43.9692L117.007 39.769L124.454 33.6457L122.211 30.918L112.484 38.9166L118.18 45.8433Z" fill="#D70283"/>
<path d="M123.546 55.9789L126.078 54.6944L123.493 49.5975L125.409 48.626L127.724 53.1904L130.255 51.9072L127.942 47.3415L129.657 46.4716L132.115 51.321L134.648 50.0365L130.594 42.0391L119.365 47.7315L123.546 55.9789Z" fill="#D70283"/>
<path d="M133.023 59.8023C132.904 59.3532 132.611 58.9699 132.209 58.7367C131.807 58.5035 131.329 58.4394 130.88 58.5587C130.431 58.6779 130.048 58.9706 129.815 59.3725C129.581 59.7743 129.517 60.2523 129.637 60.7014C131.861 69.0863 132.13 77.8702 130.422 86.3754C128.714 94.8807 125.075 102.88 119.785 109.756C114.496 116.632 107.698 122.2 99.9148 126.033C92.1321 129.865 83.573 131.858 74.898 131.858C66.2229 131.858 57.6639 129.865 49.8811 126.033C42.0984 122.2 35.3 116.632 30.0105 109.756C24.7211 102.88 21.082 94.8807 19.3739 86.3754C17.6659 77.8702 17.9346 69.0863 20.1593 60.7014C20.2184 60.479 20.233 60.2472 20.2025 60.0192C20.1719 59.7912 20.0968 59.5714 19.9813 59.3725C19.8658 59.1735 19.7123 58.9992 19.5295 58.8596C19.3466 58.72 19.1381 58.6177 18.9158 58.5587C18.6934 58.4996 18.4616 58.485 18.2336 58.5155C18.0056 58.5461 17.7858 58.6212 17.5868 58.7367C17.3879 58.8522 17.2136 59.0057 17.074 59.1885C16.9343 59.3714 16.8321 59.5799 16.7731 59.8023C14.4106 68.7059 14.1251 78.0332 15.9387 87.0646C17.7524 96.096 21.6165 104.59 27.2332 111.891C32.8498 119.193 40.0687 125.106 48.3329 129.175C56.5971 133.244 65.6857 135.361 74.8974 135.361C84.1091 135.361 93.1977 133.244 101.462 129.175C109.726 125.106 116.945 119.193 122.562 111.891C128.178 104.59 132.042 96.096 133.856 87.0646C135.67 78.0332 135.385 68.7059 133.023 59.8023Z" fill="#D70283"/>
</svg>
