<svg width="152" height="155" viewBox="0 0 152 155" fill="none" xmlns="http://www.w3.org/2000/svg">
<path d="M21.8935 27.0625C8.95341 40.5396 1 58.841 1 79C1 120.421 34.5786 154 76 154C117.421 154 151 120.421 151 79C151 58.841 143.047 40.5396 130.106 27.0625" stroke="#D70283" stroke-width="1.875" stroke-linecap="round"/>
<path d="M31.3394 23.7759L30.3755 24.5156L25.787 18.5357L28.8929 16.1524C30.2496 15.1114 31.5816 15.1102 32.4377 16.2259C33.1979 17.2166 33.0121 18.3235 31.9354 19.2489L31.9834 19.3113C32.5433 19.0802 32.963 19.1836 33.4649 19.394L35.7931 20.3585L34.6864 21.2077L32.4644 20.2894C31.8337 20.0218 31.4063 20.0377 30.6566 20.613L29.5588 21.4554L31.3394 23.7759ZM27.4152 18.6618L28.9904 20.7146L31.1235 19.0778C31.9268 18.4614 32.1161 17.8765 31.5408 17.1268C30.9792 16.3949 30.3516 16.4086 29.5483 17.025L27.4152 18.6618Z" fill="#D70283"/>
<path d="M40.1655 17.6481L38.9749 18.2844L38.3883 10.0513L39.8964 9.24522L46.4161 14.307L45.2056 14.954L43.5189 13.636L40.0067 15.5134L40.1655 17.6481ZM39.7399 11.8163L39.9189 14.3229L42.5779 12.9017L40.5932 11.3602L39.7024 10.6245L39.623 10.6669L39.7399 11.8163Z" fill="#D70283"/>
<path d="M53.5144 11.7723C51.3838 12.4955 49.9789 11.9269 49.469 10.4248L49.4474 10.3609L50.5979 9.97036L50.6557 10.1408C50.945 10.993 51.5904 11.2492 53.1563 10.7176C54.5199 10.2548 54.8981 9.79374 54.6702 9.1226C54.4605 8.50473 54.0187 8.39332 53.0554 8.53025L51.2107 8.83567C49.9345 9.03124 48.8943 8.76658 48.4965 7.59476C48.1457 6.56142 48.6436 5.22814 50.8594 4.47597C52.9474 3.76719 54.2499 4.48934 54.7236 5.88488L54.7453 5.9488L53.6054 6.33573L53.5584 6.19724C53.2619 5.3237 52.5916 5.06412 51.1109 5.56677C49.8112 6.00795 49.4083 6.50111 49.6253 7.14029C49.835 7.75816 50.266 7.83762 51.169 7.73304L53.0067 7.44188C54.521 7.21299 55.4447 7.62415 55.7991 8.66814C56.1679 9.75474 55.6236 11.0563 53.5144 11.7723Z" fill="#D70283"/>
<path d="M62.4333 9.27897L61.2346 9.47688L60.0068 2.04006L61.2055 1.84214L61.726 4.99447L66.0993 4.27243L65.5788 1.12011L66.7665 0.924021L67.9943 8.36085L66.8066 8.55693L66.277 5.34911L61.9037 6.07114L62.4333 9.27897Z" fill="#D70283"/>
<path d="M86.1003 8.70667L84.9016 8.50876L86.1294 1.07193L92.0456 2.04869L91.8678 3.12537L87.1504 2.34652L86.7692 4.65527L91.3201 5.40663L91.1442 6.4722L86.5933 5.72084L86.1003 8.70667Z" fill="#D70283"/>
<path d="M97.1056 11.185L95.9551 10.7945L98.3779 3.65697L102.085 4.9154C103.704 5.46506 104.445 6.572 103.993 7.90362C103.592 9.0861 102.568 9.54652 101.201 9.16545L101.176 9.24002C101.679 9.5772 101.826 9.98358 101.93 10.5178L102.421 12.9895L101.1 12.5411L100.63 10.1833C100.502 9.51025 100.251 9.16378 99.3561 8.86002L98.0458 8.41523L97.1056 11.185ZM99.1777 5.08085L98.346 7.53104L100.892 8.39531C101.851 8.72076 102.442 8.55325 102.746 7.6584C103.043 6.78486 102.683 6.27058 101.724 5.94512L99.1777 5.08085Z" fill="#D70283"/>
<path d="M112.373 17.9359L107.055 15.0934L110.608 8.44589L115.926 11.2884L115.412 12.2508L111.165 9.98103L110.168 11.8463L114.266 14.0365L113.757 14.989L109.659 12.7988L108.641 14.7037L112.887 16.9735L112.373 17.9359Z" fill="#D70283"/>
<path d="M121.833 24.6754L117.049 21.0046L121.637 15.0247L126.421 18.6955L125.757 19.5613L121.937 16.6301L120.649 18.308L124.336 21.1365L123.678 21.9933L119.992 19.1648L118.677 20.8785L122.497 23.8097L121.833 24.6754Z" fill="#D70283"/>
<path d="M48.5 116.814C47.125 116.814 46.0937 116.126 45.4062 115.095C41.625 107.533 39.9062 101.345 39.9062 96.1888C39.9062 88.6263 41.9688 82.4388 45.75 76.9388C46.7812 75.5638 48.1563 74.1888 49.5313 72.8138C52.625 69.7201 55.375 66.6263 55.375 61.8138C55.375 57.3451 52.2813 52.1888 46.4375 47.3763C45.0625 46.0013 44.7188 43.9388 46.0938 42.5638C47.4688 41.1888 49.5312 40.8451 50.9062 42.2201C58.4688 48.4076 62.25 54.9388 62.25 61.8138C62.25 69.3763 57.7812 73.8451 54.3437 77.6263C53.3125 78.6576 51.9375 80.0326 51.25 81.0638C48.1563 85.1888 46.7812 90.0013 46.7812 96.1888C46.7812 100.314 48.5 105.47 51.5938 111.658C52.2812 113.376 51.9375 115.439 50.2188 116.126C49.5312 116.814 49.1875 116.814 48.5 116.814Z" fill="#D70283"/>
<path d="M103.498 116.815C102.811 116.815 102.467 116.815 101.779 116.471C100.061 115.784 99.373 113.377 100.404 112.002C103.498 105.815 105.217 100.315 105.217 96.5335C105.217 90.346 103.842 85.5335 100.748 81.4085C100.061 80.3773 99.0293 79.346 97.6543 77.971C94.2168 73.846 89.748 69.3773 89.748 61.8148C89.748 54.9398 93.5293 48.4085 101.436 41.8773C102.811 40.5023 105.217 40.846 106.248 42.221C107.623 43.596 107.279 46.0023 105.904 47.0335C99.7168 52.1898 96.623 57.346 96.623 61.8148C96.623 66.6273 99.373 69.721 102.467 72.8148C103.842 74.1898 105.217 75.5648 106.248 76.9398C110.029 82.4398 112.092 88.6273 112.092 96.1898C112.092 101.346 110.373 107.534 106.592 114.752C105.904 116.127 104.873 116.815 103.498 116.815Z" fill="#D70283"/>
<path d="M75.9993 116.814C73.9368 116.814 72.5618 115.439 72.5618 113.376C72.5618 104.783 72.5618 99.6264 72.5618 97.9076C72.5618 96.5326 70.8431 94.4701 67.7493 92.7514C65.6868 91.3764 62.5931 91.0327 59.1556 91.3764C57.0931 91.7202 55.7181 90.3451 55.3743 88.2826C55.0306 86.2201 56.7493 84.8452 58.4681 84.5014C63.6243 84.1577 67.7493 84.8452 71.1868 86.9077C77.7181 90.6889 79.4368 95.1576 79.4368 97.9076V113.376C79.4368 115.439 78.0618 116.814 75.9993 116.814Z" fill="#D70283"/>
<path d="M76.002 101.345C73.9395 101.345 72.5645 99.6264 72.5645 97.9077C72.5645 95.1577 73.9395 90.6889 80.8145 86.9077C84.252 84.8452 88.7207 84.1577 93.5332 84.5014C95.252 84.8452 96.9707 86.2201 96.627 88.2826C96.2832 90.3451 94.9082 91.7202 92.8457 91.3764C89.4082 91.0327 86.3145 91.3764 84.252 92.7514C81.502 94.4702 79.4395 96.1889 79.4395 97.9077C79.4395 99.6264 78.0645 101.345 76.002 101.345Z" fill="#D70283"/>
</svg>
