<svg width="150" height="150" viewBox="0 0 150 150" fill="none" xmlns="http://www.w3.org/2000/svg">
<path d="M12.58 62.5508L16.4776 63.467L17.4287 59.4258L13.5299 58.509L14.2369 55.502L24.9616 58.0238L24.2546 61.0313L20.0058 60.0318L19.0559 64.0737L23.3036 65.0726L22.5966 68.0796L11.873 65.5578L12.58 62.5508Z" fill="#D70283"/>
<path d="M27.0504 53.3662L22.9293 51.3382L15.4785 51.934L17.0727 48.6932L19.7273 48.8517C20.5974 48.8973 21.1162 48.9161 21.8552 48.9697L21.8688 48.9407C21.4127 48.4247 21.0227 47.9594 20.4845 47.3488L18.725 45.335L20.2986 42.1387L24.1905 48.5165L28.4142 50.5947L27.0504 53.3662Z" fill="#D70283"/>
<path d="M22.4785 39.1848C23.159 38.0186 23.9271 36.9059 24.7762 35.8562C25.4839 34.815 26.4988 34.0205 27.6795 33.5835C28.1868 33.4423 28.7206 33.4248 29.2361 33.5325C29.7516 33.6403 30.2337 33.8701 30.642 34.2027C31.0472 34.4928 31.3856 34.8661 31.6346 35.2977C31.8836 35.7293 32.0374 36.2092 32.0857 36.7051C32.0772 38.1417 31.5402 39.5249 30.577 40.5908C30.3661 40.8605 30.1585 41.072 30.024 41.2162L32.9192 43.4854L31.0331 45.8909L22.4785 39.1848ZM28.1847 39.7743C28.3797 39.5904 28.5579 39.3895 28.7172 39.1739C29.4538 38.2349 29.5542 37.2331 28.7696 36.6179C28.1391 36.1241 27.3534 36.2769 26.5973 37.2422C26.3818 37.5039 26.1899 37.7842 26.0238 38.0798L28.1847 39.7743Z" fill="#D70283"/>
<path d="M43.3867 25.8228C45.4735 28.4255 45.1724 31.7889 42.2133 34.1613C41.6539 34.6809 40.9916 35.077 40.2692 35.3239C39.5469 35.5709 38.7806 35.6632 38.0203 35.5949C37.26 35.5266 36.5225 35.2991 35.8557 34.9273C35.189 34.5555 34.6079 34.0476 34.1501 33.4367C33.6403 32.8356 33.2617 32.1347 33.0384 31.3788C32.8152 30.6229 32.7523 29.8287 32.8537 29.0471C32.9552 28.2655 33.2187 27.5138 33.6275 26.8399C34.0363 26.1661 34.5814 25.585 35.2277 25.134C38.1355 22.8021 41.3615 23.297 43.3867 25.8228ZM36.6634 31.3174C37.8504 32.7969 39.5461 33.24 40.8472 32.1966C42.1608 31.1429 42.0605 29.4221 40.8734 27.9426C39.6875 26.4625 37.9713 25.9944 36.6827 27.0275C35.3942 28.0601 35.4775 29.8372 36.6634 31.3174Z" fill="#D70283"/>
<path d="M50.1927 25.5634L50.6865 28.291L47.7365 29.6629L46.2461 18.2027L50.0708 16.4238L58.0838 24.8502L54.9707 26.2984L53.0983 24.2116L50.1927 25.5634ZM51.7173 22.366L50.3627 20.8499C49.9225 20.3693 49.3774 19.7398 48.9304 19.2444L48.9008 19.258C49.0068 19.912 49.1961 20.7074 49.3022 21.3614L49.642 23.3312L51.7173 22.366Z" fill="#D70283"/>
<path d="M57.5801 13.6724L60.5939 12.9922L62.4504 21.2207L67.0914 20.1733L67.6605 22.6928L60.0055 24.4204L57.5801 13.6724Z" fill="#D70283"/>
<path d="M69.418 11.4647L72.5059 11.3604L72.7899 19.7907L77.545 19.6299L77.6317 22.2116L69.7897 22.4767L69.418 11.4647Z" fill="#D70283"/>
<path d="M87.9083 19.2393L83.485 18.5409L83.1919 20.3974L88.1318 21.1774L87.7441 23.6308L79.7539 22.3696L81.4712 11.4893L89.2197 12.7122L88.832 15.1662L84.135 14.4244L83.8728 16.0876L88.296 16.7854L87.9083 19.2393Z" fill="#D70283"/>
<path d="M93.7203 14.0166C94.9873 14.3092 96.2319 14.6916 97.4446 15.1609C98.7646 15.5297 99.9388 16.2964 100.807 17.3566C101.061 17.7486 101.214 18.1973 101.251 18.6627C101.289 19.128 101.211 19.5955 101.024 20.0232C100.797 20.5659 100.411 21.0269 99.9162 21.3454C99.4217 21.664 98.8422 21.825 98.2542 21.8073L98.2302 21.8683C98.5038 22.1858 98.7056 22.5586 98.8219 22.9612C98.9382 23.3638 98.9663 23.7868 98.9042 24.2013C98.8575 25.3889 98.6373 27.035 98.6864 27.5076L95.7512 26.3993C95.6914 25.5135 95.7231 24.6239 95.8459 23.7446C95.9918 22.3853 95.6714 21.9851 94.7078 21.6213L94.189 21.4246L92.7396 25.2618L89.8809 24.1825L93.7203 14.0166ZM94.9564 19.3914L95.8128 19.7147C96.944 20.1423 97.7901 19.9377 98.0843 19.1577C98.3785 18.3783 97.9474 17.7614 96.9691 17.3919C96.6057 17.2412 96.2299 17.1225 95.8459 17.0373L94.9564 19.3914Z" fill="#D70283"/>
<path d="M109.277 33.6093C107.883 33.213 106.555 32.6144 105.335 31.8327C103.7 30.9294 102.483 29.4226 101.944 27.6341C101.784 26.9408 101.77 26.2219 101.903 25.523C102.037 24.8242 102.314 24.1608 102.718 23.5751C104.828 20.4033 108.458 20.4033 111.726 22.5756C112.782 23.2244 113.695 24.0791 114.413 25.0889L112.529 26.7411C111.935 25.8733 111.164 25.1405 110.268 24.5905C108.662 23.5226 106.749 23.3886 105.581 25.1447C105.327 25.5247 105.155 25.954 105.077 26.4049C104.999 26.8557 105.017 27.3178 105.13 27.7612C105.242 28.2046 105.447 28.6193 105.731 28.9783C106.014 29.3374 106.37 29.6327 106.775 29.8451C107.088 30.0697 107.43 30.2507 107.791 30.3833L108.778 28.8997L107.361 27.9578L108.674 25.9845L112.608 28.5998L109.277 33.6093Z" fill="#D70283"/>
<path d="M119.085 38.1969L115.98 34.9698L114.625 36.2731L118.093 39.8771L116.303 41.5995L110.693 35.7696L118.631 28.1318L124.07 33.7849L122.28 35.5074L118.982 32.0802L117.77 33.2473L120.875 36.4744L119.085 38.1969Z" fill="#D70283"/>
<path d="M117.709 43.256L127.112 37.5156L129.13 40.822L127.355 44.0314C126.601 45.369 125.751 46.6497 124.811 47.8634L124.837 47.905C126.02 46.9891 127.26 46.1491 128.549 45.3901L131.004 43.8911L132.494 46.3325L123.091 52.0729L121.328 49.185L123.4 45.5839C124.176 44.1963 125.023 42.849 125.935 41.5472L125.901 41.4913C124.52 42.4298 123.162 43.2788 121.739 44.1471L119.199 45.6974L117.709 43.256Z" fill="#D70283"/>
<path d="M135.416 53.5771L125.136 57.5522L124.021 54.6695L134.301 50.6943L135.416 53.5771Z" fill="#D70283"/>
<path d="M128.327 69.1303C127.754 68.2252 127.365 67.2156 127.184 66.1598C126.289 61.7867 128.404 59.3179 131.304 58.7244C135.052 57.9575 137.673 60.4913 138.398 64.0314C138.657 65.0805 138.687 66.1729 138.486 67.2346L136.019 67.088C136.168 66.2783 136.157 65.4474 135.986 64.642C135.946 64.1964 135.812 63.7644 135.591 63.3752C135.37 62.986 135.068 62.6487 134.706 62.386C134.344 62.1233 133.929 61.9412 133.491 61.8521C133.052 61.763 132.6 61.7689 132.164 61.8694C130.306 62.2497 129.268 63.7805 129.724 66.007C129.875 66.7765 130.155 67.5147 130.554 68.1901L128.327 69.1303Z" fill="#D70283"/>
<path d="M16.9058 73.9336C16.8968 74.3554 16.8691 74.7726 16.8691 75.1966C16.8691 90.6811 23.0203 105.531 33.9695 116.48C44.9186 127.43 59.7689 133.581 75.2533 133.581C90.7377 133.581 105.588 127.43 116.537 116.48C127.486 105.531 133.637 90.6811 133.637 75.1966C133.637 74.7726 133.61 74.3554 133.601 73.9336" stroke="#D70283" stroke-width="3.50305" stroke-linecap="round" stroke-linejoin="round"/>
<path d="M105.068 101.278C104.042 104.559 102.373 107.603 100.158 110.232C100.503 98.5796 90.004 86.4546 74.3996 81.5825C59.5333 76.9408 49.3083 65.722 48.6797 54.596C56.9192 53.315 65.3438 53.9717 73.2853 56.514C87.2314 60.8684 97.9487 69.9372 103.009 80.3115C106.385 86.77 107.123 94.2861 105.068 101.278Z" stroke="#D70283" stroke-width="3.50305" stroke-linecap="round" stroke-linejoin="round"/>
<path d="M40.1426 50.6377C40.1426 50.6377 77.1004 65.0696 86.308 76.0094" stroke="#D70283" stroke-width="3.50305" stroke-linecap="round" stroke-linejoin="round"/>
<path d="M81.0098 64.6914L89.7942 64.8479" stroke="#D70283" stroke-width="3.50305" stroke-linecap="round" stroke-linejoin="round"/>
<path d="M97.1719 79.4014L103.01 80.3122" stroke="#D70283" stroke-width="3.50305" stroke-linecap="round" stroke-linejoin="round"/>
<path d="M66.1191 69.7061L70.5949 80.2094" stroke="#D70283" stroke-width="3.50305" stroke-linecap="round" stroke-linejoin="round"/>
<path d="M96.0703 88.6611L96.1637 97.1619" stroke="#D70283" stroke-width="3.50305" stroke-linecap="round" stroke-linejoin="round"/>
</svg>
