<svg width="152" height="155" viewBox="0 0 152 155" fill="none" xmlns="http://www.w3.org/2000/svg">
<path d="M131.5 28.5537C143.615 41.8748 151 59.575 151 79C151 120.421 117.421 154 76 154C34.5786 154 1 120.421 1 79C1 59.575 8.38477 41.8748 20.5 28.5537" stroke="#D70283" stroke-width="1.875" stroke-linecap="round"/>
<path d="M33.4042 22.1915L32.4492 22.9243L28.525 17.8102L26.1688 19.6182L25.5044 18.7525L31.163 14.4105L31.8274 15.2762L29.48 17.0774L33.4042 22.1915Z" fill="#D70283"/>
<path d="M44.3508 15.4193L43.2497 15.9328L40.0642 9.10152L43.6124 7.44697C45.1622 6.72429 46.4629 7.01148 47.0572 8.28597C47.585 9.41773 47.164 10.4581 45.9126 11.1286L45.9458 11.1999C46.5426 11.0954 46.9299 11.2872 47.3743 11.6013L49.4386 13.0469L48.1743 13.6364L46.2038 12.2589C45.6459 11.8611 45.2253 11.7842 44.3688 12.1836L43.1147 12.7684L44.3508 15.4193ZM41.6265 9.57704L42.7201 11.9221L45.1569 10.7858C46.0745 10.3579 46.386 9.82787 45.9866 8.97141C45.5967 8.13534 44.981 8.01283 44.0634 8.44073L41.6265 9.57704Z" fill="#D70283"/>
<path d="M61.4075 9.51144L60.2213 9.77442L58.5899 2.41559L59.7761 2.15261L61.4075 9.51144Z" fill="#D70283"/>
<path d="M74.5153 8H73.3003V0.4625H79.2965V1.55375H74.5153V3.89375H79.1278V4.97375H74.5153V8Z" fill="#D70283"/>
<path d="M91.523 9.83296C89.2165 9.32162 88.021 7.48943 88.5299 5.19391C89.0388 2.8984 90.8966 1.74312 93.2031 2.25446C95.5316 2.77067 96.7161 4.60043 96.2072 6.89594C95.6983 9.19146 93.8515 10.3492 91.523 9.83296ZM91.7762 8.69069C93.5226 9.07785 94.5485 8.45257 94.9551 6.61836C95.3617 4.78414 94.6987 3.7729 92.9523 3.38574C91.206 2.99859 90.1886 3.63728 89.782 5.4715C89.3753 7.30571 90.0299 8.30354 91.7762 8.69069Z" fill="#D70283"/>
<path d="M108.985 16.0421L103.673 13.565L106.858 6.73373L107.959 7.24721L105.235 13.0895L109.446 15.0531L108.985 16.0421Z" fill="#D70283"/>
<path d="M119.332 22.7566L116.61 20.6678L121.199 14.6879L123.921 16.7767C125.777 18.2012 126.07 20.2408 124.652 22.0883C123.234 23.9358 121.189 24.1811 119.332 22.7566ZM123.256 17.6424L121.489 16.2864L118.229 20.5348L119.996 21.8909C121.38 22.9524 122.457 22.8427 123.635 21.3076C124.813 19.7724 124.64 18.704 123.256 17.6424Z" fill="#D70283"/>
<g clip-path="url(#clip0_2172_368)">
<path d="M104.151 44.5H58.6815C57.5651 44.5 56.66 45.4051 56.66 46.5215V55.3261H47.8555C46.7391 55.3261 45.834 56.2312 45.834 57.3476V111.479C45.834 112.595 46.7391 113.5 47.8555 113.5H93.3254C94.4418 113.5 95.3469 112.595 95.3469 111.479V102.674H104.152C105.268 102.674 106.173 101.769 106.173 100.652V46.5215C106.173 45.4051 105.268 44.5 104.151 44.5ZM60.7031 49.2711L80.0793 55.3263H60.7031V49.2711ZM91.3038 109.457H49.8768V59.3691H91.3038V109.457ZM102.13 98.6309H95.3467V57.3476C95.3467 56.4634 94.7721 55.6819 93.9283 55.4182L71.9276 48.543H102.13V98.6309Z" fill="#D70283"/>
<path d="M57.7427 90.4363V95.2401C57.7427 96.3565 58.6478 97.2616 59.7642 97.2616H66.2599C67.3763 97.2616 68.2814 96.3565 68.2814 95.2401C68.3976 92.1811 72.7838 92.182 72.8994 95.2401C72.8994 96.3565 73.8045 97.2616 74.9209 97.2616H81.4166C82.533 97.2616 83.4381 96.3565 83.4381 95.2401V90.4362C89.1776 88.4847 89.174 80.3409 83.4381 78.3917V73.5879C83.4381 72.4715 82.533 71.5664 81.4166 71.5664H74.9209C73.8045 71.5664 72.8994 72.4715 72.8994 73.5879C72.7833 76.6469 68.397 76.646 68.2814 73.5879C68.2814 72.4715 67.3763 71.5664 66.2599 71.5664H59.7642C58.6478 71.5664 57.7427 72.4715 57.7427 73.5879V78.3917C52.0032 80.3433 52.0068 88.4869 57.7427 90.4363ZM59.7642 82.1049C60.8806 82.1049 61.7857 81.1999 61.7857 80.0835V75.6092H64.5681C66.5196 81.3489 74.6634 81.3453 76.6126 75.6092H79.395V80.0835C79.395 81.1999 80.3001 82.1049 81.4165 82.1049C84.4754 82.221 84.4744 86.6073 81.4165 86.723C80.3001 86.723 79.395 87.628 79.395 88.7444V93.2187H76.6126C74.6611 87.479 66.5173 87.4826 64.5681 93.2187H61.7857V88.7444C61.7857 87.628 60.8806 86.723 59.7642 86.723C56.7052 86.6069 56.7063 82.2204 59.7642 82.1049Z" fill="#D70283"/>
</g>
<defs>
<clipPath id="clip0_2172_368">
<rect width="69" height="69" fill="white" transform="translate(41.5 44.5)"/>
</clipPath>
</defs>
</svg>
