<svg width="152" height="155" viewBox="0 0 152 155" fill="none" xmlns="http://www.w3.org/2000/svg">
<path d="M20.8353 28.1875C8.52114 41.5496 1 59.3965 1 79C1 120.421 34.5786 154 76 154C117.421 154 151 120.421 151 79C151 59.3965 143.479 41.5496 131.165 28.1875" stroke="#D70283" stroke-width="1.875" stroke-linecap="round"/>
<path d="M35.3904 20.6675L30.6065 24.3383L26.0179 18.3584L30.8018 14.6876L31.4662 15.5534L27.6462 18.4845L28.9337 20.1625L32.6198 17.334L33.2773 18.1909L29.5912 21.0193L30.9061 22.733L34.7261 19.8018L35.3904 20.6675Z" fill="#D70283"/>
<path d="M36.8766 19.6915L35.7225 20.3918L34.6879 12.2029L36.1498 11.3158L42.9358 16.0147L41.7624 16.7267L40.0064 15.5026L36.6017 17.5686L36.8766 19.6915ZM36.1338 13.8916L36.4491 16.3847L39.0267 14.8206L36.9609 13.3897L36.0314 12.7036L35.9544 12.7503L36.1338 13.8916Z" fill="#D70283"/>
<path d="M46.3316 14.6198C44.2924 15.5707 42.834 15.1584 42.1636 13.7208L42.1351 13.6596L43.2363 13.1462L43.3123 13.3093C43.6927 14.125 44.3621 14.3093 45.8609 13.6104C47.166 13.0019 47.4916 12.5024 47.1921 11.8601C46.9164 11.2687 46.4651 11.2061 45.5224 11.4471L43.7219 11.9515C42.4746 12.2848 41.4117 12.135 40.8887 11.0134C40.4275 10.0244 40.7773 8.64487 42.8981 7.65594C44.8965 6.72407 46.2698 7.30012 46.8927 8.6358L46.9212 8.69697L45.8302 9.2057L45.7684 9.07315C45.3786 8.23708 44.684 8.05202 43.2668 8.71288C42.0229 9.29293 41.6761 9.82702 41.9614 10.4388C42.2371 11.0301 42.6741 11.0622 43.5604 10.8599L45.3555 10.3705C46.8359 9.97806 47.7988 10.2862 48.2648 11.2854C48.7497 12.3254 48.3504 13.6785 46.3316 14.6198Z" fill="#D70283"/>
<path d="M53.9101 11.5191L52.7702 11.9061L51.9348 9.44524L47.2154 5.83175L48.6216 5.35441L51.1654 7.31846L52.0693 8.02145L52.1545 7.99253L52.4331 6.88813L53.2449 3.78498L54.6618 3.30403L53.0819 9.07961L53.9101 11.5191Z" fill="#D70283"/>
<path d="M69.0551 8.33571L67.8585 8.46676L67.1567 2.05882L64.2044 2.38216L64.0856 1.29739L71.1757 0.520901L71.2945 1.60567L68.3533 1.92778L69.0551 8.33571Z" fill="#D70283"/>
<path d="M76.1831 8.1125C73.8206 8.1125 72.2568 6.5825 72.2568 4.23125C72.2568 1.88 73.8206 0.35 76.1831 0.35C78.5681 0.35 80.1206 1.88 80.1206 4.23125C80.1206 6.5825 78.5681 8.1125 76.1831 8.1125ZM76.1831 6.9425C77.9718 6.9425 78.8381 6.11 78.8381 4.23125C78.8381 2.3525 77.9718 1.50875 76.1831 1.50875C74.3943 1.50875 73.5393 2.3525 73.5393 4.23125C73.5393 6.11 74.3943 6.9425 76.1831 6.9425Z" fill="#D70283"/>
<path d="M91.667 9.86489C89.3825 9.35842 88.1979 7.52867 88.7068 5.23315C89.2157 2.93763 91.0626 1.77992 93.3471 2.28639C95.423 2.7466 96.6293 4.16634 96.2397 5.92368L96.2056 6.07744L94.8986 5.78768L94.9327 5.63392C95.181 4.51362 94.601 3.75126 93.1073 3.42011C91.3829 3.03782 90.3656 3.67652 89.9589 5.51073C89.5523 7.34495 90.2069 8.34277 91.9312 8.72506C93.425 9.05621 94.2704 8.62138 94.5212 7.4901L94.5528 7.34732L95.8598 7.63707L95.8282 7.77986C95.4362 9.54817 93.7538 10.3275 91.667 9.86489Z" fill="#D70283"/>
<path d="M96.2847 10.9063L95.0063 10.4724L100.614 4.41614L102.234 4.9658L102.996 13.1845L101.696 12.7434L101.505 10.6113L97.7342 9.33116L96.2847 10.9063ZM100.25 6.60919L98.543 8.45332L101.398 9.42246L101.166 6.92018L101.094 5.76712L101.009 5.73819L100.25 6.60919Z" fill="#D70283"/>
<path d="M104.361 13.8858L103.259 13.3723L106.445 6.54104L109.993 8.19559C111.543 8.91827 112.159 10.0993 111.565 11.3738C111.037 12.5055 109.969 12.8518 108.651 12.3241L108.618 12.3955C109.082 12.7855 109.184 13.2054 109.229 13.7478L109.448 16.2583L108.184 15.6687L107.973 13.2738C107.919 12.5907 107.707 12.219 106.851 11.8197L105.597 11.2349L104.361 13.8858ZM107.085 8.04353L105.991 10.3886L108.428 11.5249C109.346 11.9528 109.952 11.8507 110.351 10.9942C110.741 10.1582 110.439 9.60775 109.522 9.17985L107.085 8.04353Z" fill="#D70283"/>
<path d="M111.28 17.3593L110.241 16.729L114.152 10.2851L117.499 12.3161C118.961 13.2032 119.444 14.4443 118.715 15.6465C118.067 16.7141 116.968 16.942 115.715 16.274L115.675 16.3413C116.093 16.7794 116.149 17.208 116.134 17.7521L116.079 20.2716L114.887 19.5479L114.937 17.1441C114.958 16.4593 114.788 16.0668 113.98 15.5765L112.798 14.8587L111.28 17.3593ZM114.624 11.8483L113.282 14.0604L115.581 15.4553C116.446 15.9805 117.06 15.945 117.55 15.1371C118.029 14.3484 117.788 13.7684 116.923 13.2432L114.624 11.8483Z" fill="#D70283"/>
<path d="M119.836 23.1431L118.881 22.4103L120.463 20.3486L120.845 14.4169L122.024 15.321L121.804 18.5272L121.721 19.6694L121.793 19.7242L122.866 19.3422L125.897 18.2932L127.084 19.2041L121.404 21.0992L119.836 23.1431Z" fill="#D70283"/>
<g clip-path="url(#clip0_2172_381)">
<path d="M65.6789 96.184C62.7568 96.184 60.3789 93.8061 60.3789 90.884C60.3789 87.9619 62.7568 85.584 65.6789 85.584H78.3873C79.0348 85.584 79.5562 86.1082 79.5562 86.7529C79.5562 87.3976 79.0319 87.9218 78.3873 87.9218H65.6789C64.046 87.9218 62.7168 89.251 62.7168 90.884C62.7168 92.5169 64.046 93.8462 65.6789 93.8462C66.3264 93.8462 66.8478 94.3704 66.8478 95.0151C66.8478 95.6598 66.3264 96.184 65.6789 96.184Z" fill="#D70283"/>
<path d="M79.7642 96.1836H65.6806C65.0331 96.1836 64.5117 95.6593 64.5117 95.0146C64.5117 94.3699 65.036 93.8457 65.6806 93.8457H79.7642C80.4118 93.8457 80.9332 94.3699 80.9332 95.0146C80.9332 95.6593 80.4118 96.1836 79.7642 96.1836Z" fill="#D70283"/>
<path d="M72.9784 106.497C71.2393 106.497 64.8623 106.359 61.479 104.448C57.726 102.328 42.5022 91.3675 39.1991 88.537C37.2939 86.904 36.8184 84.4574 38.0704 82.7242C39.3452 80.9538 42.3704 80.0599 47.0345 82.8588C51.4062 85.4831 56.5371 88.4711 62.0978 90.7313C62.6966 90.9749 62.983 91.6567 62.7395 92.2554C62.496 92.8542 61.8141 93.1406 61.2155 92.897C55.503 90.5737 50.2775 87.5311 45.8314 84.8612C42.7372 83.0048 40.6574 83.1337 39.9699 84.0878C39.5231 84.7094 39.6376 85.8268 40.7233 86.7579C43.8862 89.468 59.0611 100.392 62.6336 102.409C65.9397 104.276 73.3223 104.153 73.3967 104.15H92.7173C93.3648 104.15 93.8862 104.675 93.8862 105.319C93.8862 105.964 93.362 106.488 92.7173 106.488H73.4224C73.3794 106.494 73.2248 106.497 72.9784 106.497Z" fill="#D70283"/>
<path d="M103.166 88.8834C102.931 88.8834 102.696 88.8147 102.49 88.6686C102.418 88.617 95.0756 83.5233 87.1486 85.1648C81.6968 86.2935 78.981 87.7632 78.9523 87.7775C78.385 88.0869 77.6746 87.8834 77.3652 87.3163C77.0529 86.7519 77.2563 86.0415 77.8207 85.7292C77.941 85.6634 80.8287 84.0848 86.673 82.873C95.6171 81.0194 103.513 86.5229 103.845 86.7577C104.372 87.1302 104.495 87.8608 104.123 88.3878C103.893 88.7114 103.532 88.8834 103.166 88.8834Z" fill="#D70283"/>
<path d="M101.265 113.215C101.056 113.215 100.85 113.161 100.669 113.052L91.3956 107.549C90.8399 107.219 90.6566 106.5 90.986 105.944L103.176 85.4065C103.334 85.1401 103.591 84.9481 103.892 84.8707C104.193 84.7933 104.511 84.8392 104.777 84.9996L114.051 90.503C114.607 90.8324 114.79 91.5515 114.46 92.1072L102.271 112.645C102.113 112.912 101.855 113.104 101.554 113.181C101.46 113.204 101.363 113.215 101.265 113.215ZM93.5961 106.133L100.858 110.445L111.854 91.9181L104.591 87.6065L93.5961 106.133Z" fill="#D70283"/>
<path d="M105.259 95.9193C105.056 95.9193 104.85 95.8678 104.663 95.756C104.107 95.4266 103.924 94.7075 104.254 94.1517L105.448 92.1378C105.778 91.5821 106.494 91.3988 107.052 91.7282C107.608 92.0576 107.792 92.7767 107.462 93.3324L106.267 95.3464C106.047 95.7158 105.657 95.9193 105.259 95.9193Z" fill="#D70283"/>
<path d="M100.484 87.3482C99.8365 87.3482 99.3151 86.8239 99.3151 86.1793V47.1258H44.4277V82.4665C44.4277 83.114 43.9034 83.6354 43.2588 83.6354C42.6141 83.6354 42.0898 83.1112 42.0898 82.4665V45.9541C42.0898 45.3066 42.6141 44.7852 43.2588 44.7852H100.484C101.132 44.7852 101.653 45.3094 101.653 45.9541V86.1764C101.653 86.8239 101.131 87.3482 100.484 87.3482Z" fill="#D70283"/>
<path d="M80.2363 59.0682C80.1045 59.0682 79.9699 59.0453 79.8438 58.9995L71.8738 56.1547L63.9039 58.9995C63.5458 59.1256 63.1476 59.074 62.8354 58.8533C62.5232 58.6357 62.3398 58.2776 62.3398 57.8964V45.9502C62.3398 45.3027 62.8641 44.7812 63.5088 44.7812H80.2338C80.8813 44.7812 81.4027 45.3055 81.4027 45.9502V57.8966C81.4027 58.2776 81.2194 58.6328 80.9072 58.8535C80.709 58.9966 80.4741 59.0682 80.2363 59.0682ZM71.871 53.7425C72.0028 53.7425 72.1374 53.7653 72.2635 53.8112L79.0647 56.2406V47.1248H64.6775V56.2406L71.4787 53.8112C71.6045 53.7653 71.7392 53.7425 71.871 53.7425Z" fill="#D70283"/>
<path d="M84.4346 72.1132H80.7275C80.08 72.1132 79.5586 71.589 79.5586 70.9443C79.5586 70.2998 80.0828 69.7754 80.7275 69.7754H84.4346C85.0821 69.7754 85.6035 70.2996 85.6035 70.9443C85.6035 71.589 85.0821 72.1132 84.4346 72.1132Z" fill="#D70283"/>
<path d="M93.4346 72.1132H89.7275C89.08 72.1132 88.5586 71.589 88.5586 70.9443C88.5586 70.2998 89.0828 69.7754 89.7275 69.7754H93.4346C94.0821 69.7754 94.6035 70.2996 94.6035 70.9443C94.6034 71.589 94.0819 72.1132 93.4346 72.1132Z" fill="#D70283"/>
<path d="M93.433 78.291H80.7275C80.08 78.291 79.5586 77.7667 79.5586 77.1221C79.5586 76.4775 80.0828 75.9531 80.7275 75.9531H93.433C94.0805 75.9531 94.602 76.4774 94.602 77.1221C94.602 77.7667 94.0804 78.291 93.433 78.291Z" fill="#D70283"/>
</g>
<defs>
<clipPath id="clip0_2172_381">
<rect width="77.25" height="77.25" fill="white" transform="translate(37.375 40.375)"/>
</clipPath>
</defs>
</svg>
