<svg width="150" height="150" viewBox="0 0 150 150" fill="none" xmlns="http://www.w3.org/2000/svg">
<path d="M62.2923 42.2368V43.2768C62.2949 44.2931 62.6588 45.2753 63.3189 46.0481C63.979 46.8208 64.8923 47.3337 65.8957 47.4951V66.9064C65.8956 67.104 65.8398 67.2976 65.7349 67.4651L49.2152 93.8121C48.1182 95.5617 47.5099 97.5731 47.4535 99.6373C47.3971 101.702 47.8947 103.743 48.8945 105.55C49.8943 107.357 51.3598 108.863 53.1387 109.912C54.9176 110.96 56.9449 111.513 59.0099 111.513H90.7643C92.8293 111.513 94.8566 110.96 96.6355 109.912C98.4144 108.863 99.8799 107.357 100.88 105.55C101.88 103.743 102.377 101.702 102.321 99.6373C102.264 97.5731 101.656 95.5617 100.559 93.8121L84.0393 67.4651C83.9342 67.2977 83.8785 67.104 83.8785 66.9064V47.4951C84.8819 47.3337 85.7952 46.8208 86.4553 46.0481C87.1154 45.2753 87.4793 44.2931 87.4819 43.2768V42.2368C87.4806 41.1001 87.0285 40.0103 86.2247 39.2065C85.4209 38.4027 84.331 37.9505 83.1943 37.9492H66.5799C65.4432 37.9505 64.3534 38.4027 63.5496 39.2065C62.7458 40.0103 62.2936 41.1001 62.2923 42.2368ZM97.8143 103.854C97.1258 105.12 96.1063 106.176 94.8646 106.908C93.6229 107.64 92.2057 108.021 90.7643 108.01H59.0099C57.5707 108.01 56.1578 107.625 54.918 106.894C53.6782 106.163 52.6568 105.113 51.96 103.854C51.2632 102.595 50.9164 101.172 50.9557 99.7331C50.995 98.2944 51.4189 96.8925 52.1834 95.6731L59.3839 84.189H90.3902L97.5908 95.6731C98.3656 96.8885 98.7957 98.2916 98.8351 99.7325C98.8744 101.173 98.5216 102.598 97.8143 103.854ZM88.1937 80.686H61.5803L68.7044 69.3239C69.1583 68.5992 69.3989 67.7614 69.3988 66.9064V47.5644H80.3755V66.9064C80.3754 67.7623 80.6165 68.6009 81.0711 69.3261L88.1937 80.686ZM65.7954 42.2368C65.7957 42.0288 65.8784 41.8294 66.0255 41.6824C66.1725 41.5353 66.3719 41.4525 66.5799 41.4523H83.1943C83.4023 41.4525 83.6017 41.5353 83.7487 41.6824C83.8958 41.8294 83.9786 42.0288 83.9788 42.2368V43.2768C83.9786 43.4848 83.8958 43.6841 83.7487 43.8312C83.6017 43.9783 83.4023 44.061 83.1943 44.0613H66.5799C66.3719 44.061 66.1725 43.9783 66.0255 43.8312C65.8784 43.6841 65.7957 43.4848 65.7954 43.2768V42.2368Z" fill="#D70283"/>
<path d="M74.8867 86.0596C73.9264 86.0596 72.9877 86.3443 72.1892 86.8779C71.3907 87.4114 70.7684 88.1697 70.4009 89.0569C70.0334 89.9441 69.9372 90.9204 70.1245 91.8623C70.3119 92.8042 70.7743 93.6693 71.4534 94.3484C72.1324 95.0274 72.9976 95.4899 73.9395 95.6772C74.8813 95.8646 75.8576 95.7684 76.7448 95.4009C77.632 95.0334 78.3904 94.4111 78.9239 93.6126C79.4574 92.8141 79.7422 91.8754 79.7422 90.915C79.7408 89.6277 79.2288 88.3935 78.3185 87.4833C77.4082 86.573 76.1741 86.061 74.8867 86.0596ZM74.8867 92.2674C74.6193 92.2674 74.3578 92.1881 74.1354 92.0395C73.913 91.8909 73.7396 91.6797 73.6373 91.4326C73.5349 91.1855 73.5081 90.9135 73.5603 90.6512C73.6125 90.3888 73.7413 90.1479 73.9304 89.9587C74.1196 89.7696 74.3605 89.6408 74.6229 89.5886C74.8852 89.5364 75.1572 89.5632 75.4043 89.6656C75.6514 89.7679 75.8626 89.9413 76.0112 90.1637C76.1598 90.3861 76.2392 90.6476 76.2392 90.915C76.2388 91.2736 76.0961 91.6174 75.8426 91.8709C75.5891 92.1244 75.2453 92.2671 74.8867 92.2674Z" fill="#D70283"/>
<path d="M65.6621 94.5254C64.7018 94.5254 63.763 94.8102 62.9646 95.3437C62.1661 95.8772 61.5437 96.6355 61.1762 97.5227C60.8087 98.41 60.7126 99.3862 60.8999 100.328C61.0873 101.27 61.5497 102.135 62.2288 102.814C62.9078 103.493 63.773 103.956 64.7149 104.143C65.6567 104.33 66.633 104.234 67.5202 103.867C68.4074 103.499 69.1657 102.877 69.6993 102.078C70.2328 101.28 70.5176 100.341 70.5176 99.3808C70.516 98.0936 70.004 96.8595 69.0937 95.9492C68.1835 95.039 66.9494 94.5269 65.6621 94.5254ZM65.6621 100.733C65.3946 100.733 65.1331 100.654 64.9107 100.505C64.6883 100.357 64.515 100.146 64.4126 99.8984C64.3103 99.6513 64.2835 99.3793 64.3357 99.117C64.3879 98.8547 64.5167 98.6137 64.7058 98.4245C64.8949 98.2354 65.1359 98.1066 65.3983 98.0544C65.6606 98.0022 65.9325 98.029 66.1796 98.1314C66.4268 98.2337 66.638 98.4071 66.7866 98.6295C66.9352 98.8519 67.0145 99.1134 67.0145 99.3808C67.014 99.7394 66.8713 100.083 66.6178 100.337C66.3643 100.59 66.0206 100.733 65.6621 100.733Z" fill="#D70283"/>
<path d="M84.1127 94.5254C83.1524 94.5255 82.2137 94.8104 81.4153 95.344C80.6169 95.8776 79.9947 96.6359 79.6273 97.5231C79.2598 98.4104 79.1638 99.3866 79.3512 100.328C79.5386 101.27 80.0011 102.135 80.6801 102.814C81.3592 103.493 82.2244 103.956 83.1662 104.143C84.1081 104.33 85.0843 104.234 85.9715 103.867C86.8587 103.499 87.617 102.877 88.1505 102.078C88.684 101.28 88.9687 100.341 88.9687 99.3808C88.9673 98.0934 88.4552 96.8592 87.5448 95.9489C86.6344 95.0386 85.4001 94.5266 84.1127 94.5254ZM84.1127 100.733C83.8452 100.733 83.5838 100.654 83.3615 100.505C83.1392 100.356 82.9659 100.145 82.8636 99.898C82.7614 99.6509 82.7347 99.379 82.7869 99.1167C82.8392 98.8544 82.968 98.6134 83.1572 98.4243C83.3463 98.2353 83.5873 98.1065 83.8496 98.0544C84.112 98.0022 84.3839 98.0291 84.6309 98.1314C84.878 98.2338 85.0892 98.4072 85.2378 98.6295C85.3864 98.8519 85.4657 99.1134 85.4657 99.3808C85.4653 99.7395 85.3226 100.083 85.0689 100.337C84.8153 100.59 84.4714 100.733 84.1127 100.733Z" fill="#D70283"/>
<path d="M60.5965 127.974L61.5552 125.301L53.2191 122.311L48.9688 134.164L52.292 135.356L53.8882 130.906L58.601 132.598L59.5596 129.925L54.8469 128.233L55.5848 126.177L60.5965 127.974Z" fill="#D70283"/>
<path d="M73.831 130.697C73.9175 130.17 73.8723 129.63 73.6994 129.126C73.5265 128.621 73.2313 128.167 72.8401 127.804C71.5787 126.874 70.0612 126.355 68.4943 126.319C67.0182 126.141 65.5313 126.069 64.0448 126.101L62.6582 138.448L66.1305 138.838L66.6527 134.178L67.2844 134.249C68.4545 134.379 68.9219 134.732 69.1432 136.281C69.2553 137.29 69.4712 138.284 69.7874 139.248L73.3521 139.648C73.1651 139.139 72.9438 137.253 72.661 135.923C72.6124 135.446 72.4619 134.986 72.2197 134.573C71.9775 134.16 71.6493 133.803 71.2573 133.528L71.2653 133.455C71.9217 133.309 72.5182 132.967 72.9763 132.474C73.4343 131.982 73.7323 131.362 73.831 130.697ZM70.3303 130.567C70.2231 131.514 69.3439 131.98 67.9698 131.825L66.931 131.708L67.2514 128.848C67.7013 128.834 68.1516 128.86 68.597 128.925C69.7852 129.058 70.4363 129.62 70.3303 130.567Z" fill="#D70283"/>
<path d="M85.6555 125.914L76.752 126.974L78.2408 139.476L87.4211 138.383L87.0859 135.564L81.411 136.239L81.1565 134.107L86.2394 133.501L85.9031 130.681L80.8202 131.288L80.5936 129.376L85.9907 128.733L85.6555 125.914Z" fill="#D70283"/>
<path d="M96.7185 122.263L88.2773 125.282L92.5172 137.134L101.222 134.021L100.265 131.348L94.8841 133.274L94.1613 131.25L98.9803 129.528L98.0228 126.855L93.2061 128.578L92.5581 126.768L97.6749 124.937L96.7185 122.263Z" fill="#D70283"/>
<path d="M33.5894 28.8424L32.1104 26.4375C30.9853 26.9443 29.9827 27.6876 29.1706 28.6166C26.3312 31.6134 25.6756 35.7277 28.8491 38.7335C31.303 41.0586 34.9988 41.4212 38.5064 37.7198C39.376 36.8591 40.0666 35.8348 40.5385 34.7059L38.1997 33.2361C37.8286 34.0513 37.3215 34.7974 36.7002 35.4426C34.9144 37.3287 32.8014 37.3583 31.2289 35.8691C29.4124 34.1472 29.8697 32.0079 31.3213 30.4754C31.9634 29.7882 32.734 29.2334 33.5894 28.8424Z" fill="#D70283"/>
<path d="M38.9291 20.908L35.9258 22.7646L42.543 33.477L45.5463 31.6203L42.9249 27.377L46.9627 24.884L49.583 29.1273L52.5863 27.2707L45.9702 16.5596L42.9669 18.415L45.3723 22.3081L41.3357 24.8022L38.9291 20.908Z" fill="#D70283"/>
<path d="M57.6513 22.4404L54.7367 13.2461L51.3691 14.3134L55.1758 26.3218L63.7279 23.6116L62.8358 20.7963L57.6513 22.4404Z" fill="#D70283"/>
<path d="M71.1727 23.0021C75.4968 22.7136 77.9758 19.7579 77.7215 15.9561C77.4741 12.2661 74.775 9.6935 70.5262 9.97858C69.6257 9.979 68.7353 10.1674 67.912 10.5319C67.0886 10.8963 66.3504 11.4286 65.7447 12.0948C65.1389 12.761 64.679 13.5463 64.3943 14.4005C64.1096 15.2547 64.0064 16.159 64.0914 17.0554C64.1211 17.9269 64.3338 18.7824 64.7156 19.5663C65.0974 20.3503 65.6397 21.0452 66.3075 21.606C66.9753 22.1668 67.7535 22.5809 68.5917 22.8214C69.4298 23.0619 70.3092 23.1235 71.1727 23.0021ZM70.6516 12.7039C72.5343 12.5774 73.8365 14.1385 73.9813 16.2994C74.1261 18.4614 73.0964 20.141 71.1773 20.2688C69.2764 20.3965 67.9764 18.873 67.8316 16.711C67.6868 14.549 68.7701 12.8294 70.6516 12.7039Z" fill="#D70283"/>
<path d="M92.0941 15.9133C92.2251 15.3961 92.2258 14.8545 92.0963 14.3369C91.9667 13.8193 91.7109 13.3419 91.3517 12.9474C90.1745 11.9139 88.7071 11.2688 87.1497 11.1001C85.6944 10.7963 84.2193 10.5974 82.7355 10.5049L80.3066 22.6856L83.7322 23.3676L84.649 18.771L85.2716 18.8953C86.4256 19.1256 86.8612 19.5167 86.9501 21.0778C86.9767 22.092 87.1074 23.1008 87.3401 24.0883L90.8569 24.7884C90.7132 24.265 90.6539 22.3687 90.4851 21.0208C90.4774 20.5418 90.3665 20.0701 90.1601 19.6378C89.9537 19.2055 89.6566 18.8227 89.2889 18.5155L89.3038 18.4414C89.97 18.3517 90.5933 18.062 91.0915 17.6107C91.5897 17.1593 91.9392 16.5675 92.0941 15.9133ZM88.6173 15.4868C88.4314 16.4208 87.5157 16.8096 86.1599 16.5394L85.1347 16.3341L85.6969 13.5141C86.146 13.5376 86.5921 13.6009 87.0299 13.7034C88.2022 13.9372 88.8032 14.5529 88.6173 15.4868Z" fill="#D70283"/>
<path d="M92.8867 25.8301L97.6327 14.1729L100.901 15.5036L96.1554 27.1609L92.8867 25.8301Z" fill="#D70283"/>
<path d="M109.664 20.1626L105.986 17.6973L98.9727 28.1562L101.689 29.9784L103.582 27.1527C104.643 25.57 105.648 24.0397 106.631 22.4045L106.694 22.4455C106.37 24.2335 106.137 26.0367 105.996 27.8483L105.568 32.5783L108.781 34.7335L115.793 24.2734L113.078 22.4524L111.247 25.1834C110.272 26.5885 109.386 28.0541 108.597 29.5714L108.551 29.5406C108.946 27.8303 109.215 26.0936 109.357 24.3442L109.664 20.1626Z" fill="#D70283"/>
<path d="M123.965 36.8185L126.079 34.921L120.083 28.25L110.717 36.6678L116.9 43.5478L119.011 41.6492L115.19 37.3953L116.788 35.9602L120.21 39.768L122.322 37.8705L118.9 34.0616L120.332 32.7748L123.965 36.8185Z" fill="#D70283"/>
<path d="M124.716 44.2935C124.517 44.4077 124.342 44.5601 124.201 44.7421C124.06 44.924 123.957 45.1319 123.896 45.3539C123.836 45.5758 123.82 45.8075 123.849 46.0356C123.878 46.2638 123.952 46.4839 124.066 46.6835C130.965 58.7575 133.176 72.9495 130.276 86.5498C127.377 100.15 119.57 112.206 108.346 120.416C108.161 120.552 108.004 120.724 107.885 120.92C107.765 121.117 107.686 121.335 107.651 121.562C107.616 121.79 107.626 122.022 107.681 122.245C107.736 122.468 107.834 122.679 107.97 122.864C108.106 123.049 108.277 123.206 108.474 123.325C108.671 123.445 108.889 123.524 109.116 123.559C109.344 123.594 109.575 123.584 109.799 123.529C110.022 123.474 110.233 123.376 110.418 123.24C122.336 114.521 130.625 101.718 133.703 87.2762C136.781 72.8341 134.433 57.7642 127.106 44.9434C126.992 44.7437 126.84 44.5684 126.658 44.4276C126.476 44.2868 126.268 44.1832 126.046 44.1229C125.824 44.0625 125.592 44.0465 125.364 44.0757C125.136 44.105 124.916 44.179 124.716 44.2935Z" fill="#D70283"/>
<path d="M25.0588 44.2935C24.8593 44.179 24.6391 44.105 24.4109 44.0758C24.1827 44.0465 23.951 44.0625 23.729 44.1228C23.507 44.1832 23.2991 44.2868 23.1171 44.4276C22.9352 44.5684 22.7828 44.7437 22.6687 44.9435C15.3421 57.7642 12.9937 72.8341 16.072 87.2762C19.1503 101.718 27.4395 114.521 39.3573 123.24C39.5426 123.376 39.753 123.474 39.9764 123.529C40.1997 123.584 40.4316 123.594 40.6589 123.559C40.8862 123.524 41.1044 123.445 41.301 123.325C41.4977 123.206 41.6689 123.049 41.805 122.864C41.941 122.679 42.0392 122.468 42.0939 122.245C42.1487 122.022 42.1589 121.79 42.124 121.562C42.0891 121.335 42.0098 121.117 41.8906 120.92C41.7714 120.724 41.6146 120.552 41.4292 120.416C30.2055 112.206 22.3985 100.15 19.4988 86.5498C16.5991 72.9495 18.8098 58.7576 25.7088 46.6836C25.8231 46.484 25.8969 46.2638 25.9261 46.0357C25.9553 45.8075 25.9393 45.5759 25.8789 45.3539C25.8185 45.132 25.7151 44.9241 25.5743 44.7421C25.4336 44.5602 25.2585 44.4077 25.0588 44.2935Z" fill="#D70283"/>
</svg>
