<svg width="41" height="33" viewBox="0 0 41 33" fill="none" xmlns="http://www.w3.org/2000/svg">
<path d="M2.26299 33V26.2927H6.12338C9.31818 26.2927 10.9156 24.6829 10.9156 21.4634V17.1707H9.05195C6.47835 17.1707 4.30411 16.3659 2.52922 14.7561C0.843074 13.1463 0 11.1341 0 8.71951C0 6.12602 0.843074 4.02439 2.52922 2.41464C4.30411 0.804882 6.47835 0 9.05195 0C11.6255 0 13.7554 0.849595 15.4416 2.54878C17.1277 4.24797 17.9708 6.39431 17.9708 8.98781V21.4634C17.9708 29.1545 14.1548 33 6.52273 33H2.26299ZM25.2922 33V26.2927H29.1526C32.3474 26.2927 33.9448 24.6829 33.9448 21.4634V17.1707H32.0812C29.5076 17.1707 27.3333 16.3659 25.5584 14.7561C23.8723 13.1463 23.0292 11.1341 23.0292 8.71951C23.0292 6.12602 23.8723 4.02439 25.5584 2.41464C27.3333 0.804882 29.5076 0 32.0812 0C34.6548 0 36.7846 0.849595 38.4708 2.54878C40.1569 4.24797 41 6.39431 41 8.98781V21.4634C41 29.1545 37.184 33 29.5519 33H25.2922Z" fill="#FF8D4D"/>
</svg>
